<?xml version="1.0" encoding="UTF-8" standalone="no"?>
<svg width="44px" height="62px" viewBox="0 0 44 62" version="1.1" xmlns="http://www.w3.org/2000/svg" xmlns:xlink="http://www.w3.org/1999/xlink" xmlns:sketch="http://www.bohemiancoding.com/sketch/ns">
    <g id="Page 1" stroke="none" stroke-width="1" fill="none" fill-rule="evenodd" sketch:type="MSPage">
        <path d="M9.83470966,1.64898243 L19.667792,0.370505288 L43.53775,56.7787031 L35.87074,57.7758036 L29.4599837,42.2732913 L10.4605648,44.7431528 L8.20476011,61.3734048 L0.537750045,62.3705053 L9.83470966,1.64898243 L9.83470966,1.64898243 Z M11.53775,38.3705053 L27.53775,36.3154653 L16.151693,9.37050529 L15.9847187,9.39146383 L11.53775,38.3705053 L11.53775,38.3705053 Z M11.53775,38.3705053" id="Shape" fill="#FFFFFF" sketch:type="MSShapeGroup" transform="translate(22.037750, 31.370505) rotate(-359.000000) translate(-22.037750, -31.370505) "></path>
        <path d="M43.5379024,-1.99374577 L53.0415801,-2.68069519 L76.3207338,45.4339175 L76.487901,45.4215299 L72.8825124,-4.11653208 L80.2186649,-4.64694712 L84.5379024,54.6987254 L74.4502691,55.4284684 L51.8623741,8.76771095 L51.6963365,8.78009856 L55.1932923,56.8226378 L47.8571398,57.3530529 L43.5379024,-1.99374577 L43.5379024,-1.99374577 Z M43.5379024,-1.99374577" id="Shape" fill="#FFFFFF" sketch:type="MSShapeGroup" transform="translate(64.037902, 26.353053) rotate(-359.000000) translate(-64.037902, -26.353053) "></path>
    </g>
</svg>