<svg width="480" height="620" viewBox="0 0 480 620" fill="none" xmlns="http://www.w3.org/2000/svg">
  <g clip-path="url(#a)">
    <path fill="#fff" d="M0 320h240v120H0z"/>
    <path fill="#A2F8CC" d="m120.5 320-23.5 82.5 59-25-35.5-57.5z"/>
    <path fill="#B0FBD5" d="m120.5 320-54.5 73 31 9.5 23.5-82.5z"/>
    <path fill="#D4FEE9" d="m156 377.5-35.5-57.5 73.5 42L156 377.5z"/>
    <path fill="#B9FEDA" d="m156 377.5L240 426l-46-64-38 15.5z"/>
    <path fill="#94F4C3" d="M156 377.5 240 426v14h-33.5L156 377.5z"/>
    <path fill="#A2F8CC" d="m156 377.5 3 62.5h47.5L156 377.5z"/>
    <path fill="#B0FBD5" d="m156 377.5 3 62.5h-33l-15-13.5 45-49z"/>
    <path fill="#ACFED4" d="m156 377.5-59 25 14 24 45-49z"/>
    <path fill="#C2FEE0" d="M67.5 440 97 402.5l14 24L72 440h-4.5z"/>
    <path fill="#D4FEE9" d="m67.5 440 29.5-37.5-31-9.5 1.5 47z"/>
    <path fill="#C5FEE1" d="M0 437l66-44 1.5 47H40L0 437z"/>
    <path fill="#B0FBD5" d="M0 437 66 393l-11.5-64L0 437z"/>
    <path fill="#A2F8CC" d="M47.5 320 54.5 329 0 437V320h47.5z"/>
    <path fill="#C5FEE1" d="m120.5 320-54.5 73-11.5-64 66-9z"/>
    <path fill="#B9FEDA" d="M120.5 320H63l-8.5 9 66-9z"/>
    <path fill="#B0FBD5" d="m47.5 320h15.5l-8.5 9-7-9z"/>
    <path fill="#A2F8CC" d="M0 437v3h40L0 437zm72 3h54l-15-13.5L72 440z"/>
    <path fill="#B9FEDA" d="M187 320h-66.5L194 362l-7-42z"/>
    <path fill="#C5FEE1" d="M187 320h53v12.5L194 362l-7-42z"/>
    <path fill="#94F4C3" d="m240 365.5v-33L194 362l46 3.5z"/>
    <path fill="#B0FBD5" d="M240 365.5V426l-46-64 46 3.5z"/>
  </g>
  <path fill="#6439ED" d="M72 440c0-7.732-6.268-14-14-14s-14 6.268-14 14 6.268 14 14 14 14-6.268 14-14z"/>
  <path fill="#F7C595" d="M96 440H44c0-14.359 11.64-26 26-26 14.36 0 26 11.641 26 26z"/>
  <path fill="#6439ED" d="M360 576c8.837 0 16-7.163 16-16h-32c0 8.837 7.163 16 16 16z"/>
  <mask id="b" maskUnits="userSpaceOnUse" x="234" y="434" width="126" height="126">
    <path fill="#FBB5B5" d="M360 434v126H234l126-126z"/>
  </mask>
  <g mask="url(#b)">
    <path fill="#F7C595" d="M360 434v126H234l126-126z"/>
    <path fill="#ACFED4" d="M360.5 598c21.263 0 38.5-17.013 38.5-38s-17.237-38-38.5-38S322 539.013 322 560s17.237 38 38.5 38z"/>
    <path fill="#8083CF" d="M360 576c8.837 0 16-7.163 16-16s-7.163-16-16-16-16 7.163-16 16 7.163 16 16 16z"/>
  </g>
  <defs>
    <clipPath id="a">
      <path fill="#fff" d="M0 320h240v120H0z"/>
    </clipPath>
  </defs>
</svg>
