<svg width="480" height="620" fill="none" xmlns="http://www.w3.org/2000/svg"><circle cx="360" cy="560" r="60" fill="#8083CF"/><mask id="prefix__a" style="mask-type:alpha" maskUnits="userSpaceOnUse" x="120" y="320" width="240" height="240"><path fill="#ACFED4" d="M120 320h240v240H120z"/></mask><g mask="url(#prefix__a)"><path fill="#F97F9C" d="M120 320h240v240H120z"/></g><path fill="#8083CF" d="M240 80h120v120H240z"/><rect x="300" y="140" width="120" height="120" rx="60" fill="#ACFED4"/><path fill-rule="evenodd" clip-rule="evenodd" d="M360 140v60h-60c0-33.137 26.863-60 60-60z" fill="#F7C595"/><path d="M412.502 114.925l42.423-42.423C460.523 77.952 464 85.57 464 94c0 16.569-13.431 30-30 30-8.43 0-16.048-3.477-21.498-9.075z" fill="#ACFED4"/><path d="M434 64c-16.569 0-30 13.431-30 30 0 8.138 3.241 15.52 8.502 20.924l42.422-42.422A29.9 29.9 0 00434 64z" fill="#F97F9C"/><rect x="345" width="28" height="28" rx="14" fill="#F7C595"/><path fill-rule="evenodd" clip-rule="evenodd" d="M240 200H120v120h120V200zm-86 24c-5.523 0-10 4.477-10 10s4.477 10 10 10 10-4.477 10-10-4.477-10-10-10z" fill="#F97F9C"/><mask id="prefix__b" style="mask-type:alpha" maskUnits="userSpaceOnUse" x="360" y="200" width="60" height="60"><path fill="#D9D9D9" d="M360 200h60v60h-60z"/></mask><g mask="url(#prefix__b)"><path fill-rule="evenodd" clip-rule="evenodd" d="M376.656 162.128c2.438-1.93 5.125-4.228 8.208-7.128l.717.717c-4.804 4.345-8.606 7.178-12.097 9.583l3.172-3.172zm-3.713 64.808c9.924-9.923 15.979-13.96 21.834-17.863l.003-.002c5.922-3.949 12.048-8.033 22.088-18.073.689-.689 1.348-1.359 1.983-2.011l.813.813c-9.924 9.924-15.979 13.96-21.834 17.863l-.002.002c-5.923 3.948-12.049 8.033-22.09 18.073-10.04 10.041-14.125 16.167-18.073 22.09l-.002.002c-3.903 5.855-7.94 11.91-17.863 21.834l-.813-.813c8.618-8.87 12.414-14.563 16.093-20.081 3.903-5.855 7.94-11.91 17.863-21.834zm26.062 61.766c3.903-5.855 7.94-11.91 17.863-21.834 9.924-9.923 15.979-13.96 21.834-17.863l.003-.002c5.923-3.949 12.048-8.032 22.089-18.073l.784.784c-8.752 8.5-14.374 12.249-19.823 15.881l-.002.002c-5.923 3.949-12.048 8.033-22.089 18.074-10.041 10.04-14.125 16.166-18.074 22.089l-.002.002c-3.903 5.855-7.94 11.91-17.863 21.834-.689.689-1.359 1.348-2.011 1.982l-.784-.784c10.04-10.041 14.124-16.166 18.073-22.089l.002-.003zm26.775-53.084l.003-.002c5.855-3.904 11.909-7.94 21.833-17.864l-.813-.813c-8.87 8.618-14.563 12.414-20.081 16.093l-.002.001c-5.854 3.903-11.909 7.94-21.831 17.863-9.924 9.923-13.96 15.978-17.864 21.833l-.002.003c-3.948 5.923-8.032 12.048-18.073 22.089-.688.688-1.358 1.348-2.011 1.982l.813.813c9.924-9.923 13.96-15.978 17.864-21.833l.002-.003c3.948-5.923 8.032-12.048 18.073-22.089 10.041-10.041 16.166-14.125 22.089-18.073zm-48.844-8.682c-9.923 9.924-13.96 15.979-17.863 21.834l-.002.003c-3.949 5.923-8.033 12.048-18.073 22.089l.784.784c.652-.634 1.322-1.293 2.011-1.982 9.923-9.924 13.96-15.979 17.863-21.834l.002-.002c3.949-5.923 8.033-12.049 18.074-22.09 10.041-10.04 16.166-14.125 22.089-18.073l.002-.002c5.449-3.632 11.071-7.381 19.823-15.881l-.784-.784c-10.041 10.04-16.166 14.124-22.089 18.073l-.003.002c-5.855 3.903-11.91 7.94-21.834 17.863zm8.912-31.25h-.001c-5.922 3.948-12.047 8.032-22.088 18.073s-14.125 16.166-18.074 22.089l-.001.002c-3.904 5.856-7.941 11.911-17.864 21.834l-.813-.813c.653-.634 1.323-1.294 2.011-1.982 10.041-10.041 14.125-16.166 18.073-22.089l.002-.003c3.904-5.855 7.94-11.91 17.864-21.833 9.922-9.923 15.977-13.96 21.831-17.863l.002-.001c5.518-3.679 11.211-7.475 20.081-16.093l.813.813c-9.924 9.924-15.978 13.96-21.834 17.864l-.002.002zm-22.089 22.066c10.041-10.041 16.166-14.125 22.089-18.073l.002-.002c5.856-3.904 11.91-7.94 21.834-17.864.689-.689 1.348-1.358 1.982-2.011l-.784-.784c-10.041 10.041-16.166 14.125-22.089 18.073l-.003.002c-5.855 3.904-11.91 7.94-21.833 17.864-9.924 9.923-13.96 15.978-17.864 21.833l-.002.003c-3.948 5.923-8.032 12.048-18.073 22.089l.784.784c8.5-8.751 12.249-14.374 15.882-19.822l.001-.003c3.949-5.923 8.033-12.048 18.074-22.089zm23.022-60.835l.676.675c-5.424 4.698-9.552 7.45-13.586 10.139l-.008.006h-.001c-3.05 2.034-6.156 4.105-9.822 7.007l3.171-3.172c1.219-.839 2.4-1.627 3.573-2.409l.034-.022.004-.003.001-.001c4.611-3.074 9.347-6.232 15.958-12.22zm-53.077 50.981c2.036-3.054 4.107-6.162 7.013-9.831l-7.165 7.165c-.832 1.207-1.612 2.377-2.387 3.539l-.045.067-.002.003c-3.948 5.923-8.032 12.048-18.073 22.089a171.394 171.394 0 01-6.128 5.851l.675.676c2.449-2.122 5.161-4.638 8.248-7.725 9.924-9.924 13.961-15.979 17.864-21.834zm13.389 12.92c3.904-5.856 7.94-11.911 17.864-21.834 9.923-9.924 15.978-13.96 21.833-17.864 4.107-2.737 8.31-5.54 13.848-10.346l.916.916c-6.497 5.876-11.16 8.985-15.704 12.014l-.002.002h-.001c-5.922 3.949-12.047 8.032-22.088 18.073s-14.125 16.166-18.074 22.089l-.001.003c-3.904 5.855-7.941 11.91-17.864 21.833a169.268 169.268 0 01-6.13 5.85l-.916-.916c2.451-2.128 5.163-4.648 8.244-7.729 10.041-10.041 14.125-16.166 18.073-22.088l.002-.003zm26.543 27.012l.002-.002c3.948-5.923 8.032-12.049 18.073-22.09 10.041-10.04 16.167-14.125 22.09-18.073l.002-.002c4.034-2.689 8.162-5.441 13.586-10.139l-.676-.675c-6.611 5.988-11.347 9.146-15.959 12.221l-.004.003c-5.856 3.903-11.91 7.94-21.834 17.863-9.923 9.924-13.96 15.979-17.864 21.834l-.002.003c-3.948 5.923-8.032 12.048-18.073 22.089a171.394 171.394 0 01-6.128 5.851l.675.676c2.449-2.122 5.161-4.638 8.248-7.725 9.924-9.924 13.961-15.979 17.864-21.834zm13.389 12.92c3.904-5.856 7.94-11.91 17.864-21.834 9.923-9.923 15.978-13.96 21.834-17.864 4.106-2.737 8.309-5.54 13.847-10.346l.916.916c-6.497 5.876-11.16 8.985-15.703 12.014l-.003.002c-5.923 3.948-12.048 8.032-22.089 18.073-10.041 10.041-14.125 16.167-18.074 22.09l-.001.002c-3.904 5.855-7.94 11.91-17.864 21.834a170.05 170.05 0 01-6.13 5.849l-.916-.916c2.451-2.128 5.163-4.648 8.244-7.729 10.041-10.041 14.125-16.166 18.073-22.088l.002-.003zm41.823 6.118c-7.917 7.918-12.087 13.373-15.432 18.228l7.165-7.165c2.73-3.449 6.197-7.395 11.062-12.26 4.866-4.866 8.811-8.332 12.261-11.063l3.171-3.172c-4.855 3.345-10.31 7.515-18.227 15.432zm-108.734-48.199l7.165-7.165c-3.345 4.856-7.515 10.31-15.431 18.228a169.146 169.146 0 01-6.131 5.849l-.717-.717a184.368 184.368 0 004.052-3.934c4.865-4.866 8.332-8.812 11.062-12.261zm104.741 48.199c-9.924 9.924-13.96 15.979-17.864 21.834-2.035 3.054-4.107 6.162-7.013 9.831l7.165-7.165a264.958 264.958 0 002.387-3.539l.045-.067.001-.002c3.949-5.923 8.033-12.049 18.074-22.089 10.041-10.041 16.167-14.125 22.09-18.074l.002-.002.031-.021c1.174-.782 2.356-1.57 3.575-2.41l3.172-3.172c-3.667 2.902-6.772 4.973-9.823 7.007l-.008.006c-5.856 3.903-11.911 7.94-21.834 17.863zm-61.789-18.098c3.903-5.855 7.94-11.91 17.864-21.834 9.92-9.92 15.974-13.957 21.827-17.86l.005-.004c5.518-3.679 11.212-7.474 20.082-16.093l.753.753c-7.609 7.149-12.768 10.588-17.781 13.931l-.002.001c-5.923 3.949-12.049 8.033-22.09 18.074-10.04 10.041-14.124 16.167-18.073 22.089l-.002.003c-3.903 5.855-7.94 11.91-17.863 21.833a181.84 181.84 0 01-4.053 3.934l-.753-.753c.653-.634 1.322-1.294 2.011-1.982 10.041-10.041 14.124-16.166 18.073-22.089l.002-.003zm-17.382-16.913l.002-.003c3.948-5.922 8.032-12.048 18.073-22.088 10.041-10.041 16.166-14.125 22.089-18.074l.002-.002c5.449-3.632 11.071-7.381 19.823-15.881l-.843-.843c-7.724 7.263-12.955 10.751-18.037 14.139l-.003.002c-5.855 3.903-11.91 7.94-21.833 17.863-9.924 9.924-13.96 15.979-17.864 21.834l-.002.003c-3.948 5.923-8.032 12.048-18.073 22.089a184.368 184.368 0 01-4.052 3.934l.843.843c.652-.634 1.322-1.293 2.011-1.982 9.923-9.924 13.96-15.979 17.864-21.834zm39.933 39.93l-.001.002c-3.904 5.856-7.94 11.91-17.864 21.834-.689.689-1.358 1.348-2.011 1.982l-.843-.843a184.368 184.368 0 004.052-3.934c10.041-10.041 14.125-16.166 18.073-22.089l.002-.003c3.904-5.855 7.94-11.91 17.864-21.834 9.923-9.923 15.978-13.96 21.834-17.863l.002-.002c5.082-3.388 10.313-6.876 18.037-14.139l.843.843c-8.752 8.5-14.374 12.249-19.822 15.881l-.003.002c-5.923 3.949-12.048 8.033-22.089 18.074-10.041 10.041-14.125 16.166-18.074 22.089zm35.245-4.919c-9.924 9.924-13.961 15.979-17.864 21.834l-.002.003c-3.949 5.923-8.032 12.048-18.073 22.089-.689.688-1.358 1.348-2.011 1.982l.753.753a181.84 181.84 0 004.053-3.934c9.923-9.923 13.96-15.978 17.863-21.833l.002-.002c3.949-5.923 8.033-12.049 18.074-22.09 10.04-10.041 16.166-14.125 22.089-18.074l.002-.001c5.013-3.342 10.172-6.782 17.781-13.93l-.753-.754c-8.87 8.619-14.564 12.415-20.081 16.093l-.006.004c-5.853 3.903-11.907 7.94-21.827 17.86zm-73.769-42.057c3.904-5.855 7.94-11.91 17.864-21.834 9.923-9.923 15.978-13.96 21.833-17.863l.005-.004c4.612-3.075 9.347-6.232 15.959-12.22l.877.877c-7.608 7.148-12.767 10.588-17.78 13.93h-.001l-.002.002c-5.923 3.949-12.048 8.033-22.089 18.073-10.039 10.039-14.123 16.164-18.071 22.085l-.005.007c-3.903 5.855-7.94 11.91-17.863 21.833a181.84 181.84 0 01-4.053 3.934l-.877-.877a171.485 171.485 0 006.128-5.852c10.041-10.04 14.125-16.166 18.073-22.088l.002-.003zm22.55 23.019l.001-.002c3.949-5.923 8.033-12.049 18.074-22.09 10.041-10.04 16.167-14.125 22.09-18.073l.002-.002c4.543-3.029 9.206-6.138 15.703-12.014l-.717-.717c-7.724 7.263-12.956 10.751-18.037 14.138l-.003.002-.002.002c-5.854 3.903-11.909 7.94-21.831 17.862-9.924 9.924-13.96 15.979-17.864 21.834l-.002.003c-3.948 5.923-8.032 12.048-18.073 22.089a184.368 184.368 0 01-4.052 3.934l.717.717a169.146 169.146 0 006.131-5.849c9.923-9.924 13.959-15.979 17.863-21.834zm17.382 16.913c3.904-5.855 7.94-11.91 17.864-21.834 9.922-9.922 15.977-13.959 21.831-17.862l.002-.002.005-.003c4.612-3.075 9.347-6.232 15.958-12.221l.878.878c-7.609 7.148-12.768 10.588-17.781 13.93l-.002.001c-5.923 3.949-12.049 8.033-22.089 18.074-10.041 10.041-14.125 16.167-18.074 22.089l-.002.003c-3.903 5.855-7.94 11.91-17.863 21.833a181.84 181.84 0 01-4.053 3.934l-.877-.877a171.394 171.394 0 006.128-5.851c10.041-10.041 14.125-16.167 18.073-22.089l.002-.003zm-22.068-73.745c-9.924 9.923-13.96 15.978-17.864 21.833l-.002.003c-3.948 5.923-8.032 12.048-18.073 22.089-5.033 5.033-9.083 8.57-12.617 11.343l1.007 1.006c2.997-2.472 6.386-5.528 10.412-9.554 9.924-9.923 13.96-15.978 17.864-21.834l.002-.002c3.948-5.923 8.032-12.048 18.073-22.089 10.041-10.041 16.166-14.125 22.089-18.074l.002-.001.005-.003c3.478-2.319 7.028-4.686 11.418-8.307l-1.007-1.006c-3.516 2.759-6.521 4.762-9.476 6.732-5.855 3.903-11.91 7.94-21.833 17.864zm60.823 56.599c-5.923 3.949-12.048 8.033-22.089 18.074-10.043 10.042-14.126 16.168-18.075 22.092-3.029 4.543-6.138 9.206-12.014 15.703l-.717-.717c7.262-7.723 10.749-12.954 14.137-18.035l.003-.005c3.904-5.855 7.94-11.91 17.864-21.834 9.922-9.922 15.977-13.959 21.831-17.862l.002-.002.003-.002c5.923-3.948 12.048-8.032 22.089-18.073a182.1 182.1 0 003.934-4.052l.717.717a169.146 169.146 0 01-5.849 6.131c-9.924 9.924-15.978 13.96-21.833 17.863l-.003.002zm-36.171 40.165l.001-.002c3.949-5.923 8.033-12.049 18.074-22.089 10.041-10.041 16.167-14.125 22.09-18.074l.002-.002c5.855-3.903 11.909-7.939 21.833-17.863a181.84 181.84 0 003.934-4.053l-.877-.877a171.394 171.394 0 01-5.851 6.128c-10.041 10.041-16.167 14.125-22.089 18.073l-.003.002c-5.856 3.903-11.911 7.94-21.834 17.863-9.924 9.924-13.96 15.979-17.864 21.834-3.075 4.614-6.234 9.35-12.224 15.963l.878.878c7.148-7.609 10.588-12.768 13.93-17.781zm-39.931-39.934l-.001.002c-3.343 5.013-6.782 10.172-13.93 17.781l-.878-.878c5.99-6.613 9.149-11.349 12.224-15.963 3.904-5.855 7.94-11.91 17.864-21.834 9.923-9.923 15.978-13.96 21.834-17.863l.003-.002c5.922-3.948 12.048-8.032 22.088-18.073a170.598 170.598 0 005.852-6.128l.877.877a181.84 181.84 0 01-3.934 4.053c-9.924 9.924-15.978 13.96-21.833 17.863l-.002.002c-5.923 3.948-12.049 8.033-22.09 18.073-10.041 10.041-14.125 16.167-18.074 22.09zm14.081-22.09c10.041-10.04 16.166-14.124 22.089-18.073l.002-.002c5.856-3.903 11.91-7.94 21.834-17.863a169.146 169.146 0 005.849-6.131l-.717-.717a182.1 182.1 0 01-3.934 4.052c-10.041 10.041-16.166 14.125-22.089 18.073l-.003.002-.002.002c-5.854 3.903-11.909 7.94-21.831 17.862-9.924 9.924-13.96 15.979-17.864 21.834l-.003.005c-3.388 5.081-6.875 10.311-14.138 18.035l.718.717c5.876-6.497 8.985-11.16 12.014-15.704 3.949-5.923 8.032-12.049 18.075-22.092zm-22.067-17.843l-.002.003c-3.903 5.855-7.94 11.91-17.863 21.834-5.05 5.049-9.097 8.574-12.626 11.333l-.575-.575c3.001-2.482 6.39-5.545 10.406-9.56 10.04-10.041 14.124-16.166 18.073-22.089l.002-.003c3.903-5.855 7.94-11.91 17.863-21.834 9.924-9.923 15.979-13.96 21.834-17.863l.006-.004c3.553-2.369 7.179-4.787 11.68-8.511l.575.575c-3.403 2.66-6.324 4.607-9.196 6.522l-.012.008-.003.002c-5.922 3.949-12.047 8.033-22.088 18.073-10.041 10.041-14.125 16.166-18.074 22.089zm41.105-38.754c-5.855 3.903-11.91 7.94-21.833 17.863-9.924 9.924-13.961 15.979-17.864 21.834l-.002.003c-3.949 5.923-8.032 12.048-18.073 22.089-5.034 5.033-9.083 8.57-12.617 11.342l.517.517c4.059-3 8.73-6.893 14.895-13.057 9.923-9.924 13.96-15.979 17.864-21.834l.001-.003h.001c3.948-5.923 8.032-12.048 18.073-22.089 10.041-10.04 16.166-14.124 22.089-18.073l.002-.002c2.218-1.478 4.465-2.976 6.939-4.806l-.516-.516c-3.516 2.758-6.521 4.762-9.476 6.732zm-35.704 39.697c3.904-5.855 7.94-11.91 17.864-21.834 9.923-9.923 15.978-13.96 21.833-17.863l.005-.003c2.299-1.533 4.629-3.086 7.206-5.001l1.057 1.057c-3.402 2.66-6.324 4.608-9.196 6.523l-.012.007-.002.002c-5.923 3.949-12.048 8.033-22.089 18.074-10.041 10.04-14.125 16.166-18.073 22.088h-.001l-.001.003c-3.904 5.855-7.94 11.91-17.864 21.834-5.049 5.049-9.097 8.574-12.626 11.333l-1.057-1.057c4.062-3.016 8.739-6.929 14.881-13.071 10.041-10.041 14.125-16.166 18.073-22.089l.002-.003zm57.796 18.098c-9.924 9.924-13.96 15.979-17.864 21.834l-.002.003c-3.948 5.923-8.032 12.048-18.073 22.089-6.142 6.142-10.819 10.055-14.881 13.071l1.057 1.057c3.53-2.759 7.577-6.284 12.626-11.333 9.924-9.924 13.96-15.979 17.864-21.834l.001-.002c3.949-5.923 8.033-12.048 18.074-22.089 10.041-10.041 16.166-14.125 22.089-18.074l.003-.002.011-.007.001-.001c2.872-1.915 5.793-3.862 9.195-6.522l-1.057-1.057c-2.577 1.915-4.907 3.468-7.206 5.001l-.004.003c-5.856 3.903-11.911 7.94-21.834 17.863zm-23.265 20.892l-.002.002c-3.903 5.855-7.94 11.91-17.863 21.834-5.05 5.049-9.097 8.574-12.626 11.333l-.575-.575c3.001-2.482 6.39-5.545 10.406-9.56 10.04-10.041 14.124-16.166 18.073-22.089l.002-.003c3.903-5.855 7.94-11.91 17.863-21.834 9.924-9.923 15.979-13.96 21.834-17.863l.006-.004c3.553-2.369 7.179-4.787 11.68-8.511l.575.575c-3.402 2.659-6.324 4.607-9.196 6.522l-.012.008-.002.002c-5.923 3.948-12.048 8.033-22.089 18.073-10.041 10.041-14.125 16.167-18.074 22.09zm41.105-38.755c-5.855 3.903-11.91 7.94-21.833 17.863-9.924 9.924-13.961 15.979-17.864 21.834l-.002.003c-3.949 5.923-8.032 12.048-18.073 22.089-5.034 5.033-9.083 8.57-12.617 11.342l.517.518c4.059-3.001 8.73-6.894 14.895-13.058 9.924-9.924 13.96-15.979 17.864-21.834l.001-.002c3.949-5.923 8.033-12.049 18.074-22.09 10.041-10.04 16.166-14.125 22.089-18.073l.003-.002c2.217-1.478 4.464-2.976 6.939-4.806l-.517-.516c-3.516 2.759-6.521 4.762-9.476 6.732zm-75.636 7.751c3.904-5.855 7.94-11.91 17.864-21.833 9.923-9.924 15.978-13.96 21.833-17.864l.007-.004c3.552-2.369 7.179-4.787 11.68-8.511l.959.96c-5.423 4.697-9.552 7.45-13.586 10.139l-.002.002c-5.923 3.948-12.048 8.032-22.089 18.073-10.041 10.041-14.125 16.166-18.074 22.089l-.001.003c-3.904 5.855-7.941 11.91-17.864 21.833-3.087 3.087-5.799 5.604-8.248 7.725l-.96-.959c3.001-2.483 6.39-5.545 10.406-9.561 10.041-10.041 14.125-16.166 18.073-22.089l.002-.003zm-9.396-8.926l.002-.003c3.949-5.923 8.033-12.048 18.073-22.089 10.041-10.041 16.167-14.124 22.089-18.073l.003-.002.004-.003c3.478-2.319 7.028-4.686 11.418-8.306l-.628-.628c-5.537 4.807-9.741 7.609-13.847 10.347-5.855 3.903-11.91 7.94-21.834 17.863-9.923 9.924-13.96 15.979-17.863 21.834l-.002.003c-3.949 5.923-8.033 12.048-18.074 22.089-3.081 3.081-5.793 5.6-8.244 7.728l.628.628c2.997-2.472 6.386-5.529 10.412-9.554 9.923-9.924 13.96-15.979 17.863-21.834zm39.934 39.93l-.002.002c-3.903 5.855-7.94 11.91-17.863 21.834-4.026 4.025-7.415 7.082-10.412 9.554l-.628-.628c2.451-2.127 5.163-4.647 8.244-7.728 10.041-10.041 14.125-16.166 18.074-22.089l.002-.003c3.903-5.855 7.94-11.91 17.863-21.834 9.924-9.923 15.979-13.96 21.834-17.863 4.106-2.738 8.31-5.54 13.847-10.347l.628.628c-4.39 3.621-7.939 5.987-11.418 8.306v.001l-.004.002-.002.002c-5.923 3.948-12.049 8.033-22.09 18.073-10.04 10.041-14.124 16.167-18.073 22.09zm26.06 9.856c10.041-10.041 16.166-14.125 22.089-18.073l.003-.002c5.855-3.903 11.909-7.94 21.833-17.864.689-.689 1.348-1.358 1.982-2.011l-.784-.784c-10.041 10.041-16.166 14.125-22.089 18.073l-.002.002c-5.856 3.904-11.911 7.94-21.834 17.864-9.924 9.923-13.96 15.978-17.864 21.834l-.002.002c-3.948 5.923-8.032 12.048-18.073 22.089l.784.784c8.5-8.751 12.249-14.374 15.882-19.822l.002-.003c3.948-5.923 8.032-12.048 18.073-22.089zm9.184 9.184c9.924-9.923 15.979-13.96 21.834-17.863l.003-.002c5.923-3.949 12.048-8.033 22.089-18.073.688-.689 1.347-1.358 1.982-2.011l.813.813c-9.924 9.924-15.979 13.96-21.834 17.863l-.002.002c-5.923 3.949-12.049 8.033-22.089 18.074-10.041 10.04-14.125 16.166-18.074 22.089l-.002.002c-3.903 5.855-7.94 11.91-17.863 21.834l-.813-.813c8.618-8.87 12.414-14.563 16.093-20.081 3.903-5.855 7.94-11.91 17.863-21.834zm-7.986-35.938c-9.924 9.923-13.96 15.978-17.864 21.833l-.002.003c-3.948 5.923-8.032 12.048-18.073 22.089-5.033 5.033-9.083 8.57-12.617 11.343l1.007 1.006c2.997-2.472 6.386-5.529 10.412-9.554 9.923-9.924 13.96-15.979 17.863-21.834l.002-.002c3.949-5.923 8.033-12.049 18.073-22.09 10.041-10.04 16.167-14.124 22.09-18.073l.002-.002.004-.003c3.479-2.319 7.028-4.686 11.418-8.306l-1.006-1.007c-3.516 2.76-6.521 4.763-9.476 6.733l-.002.001c-5.854 3.903-11.909 7.94-21.831 17.863zm-17.864 25.826c3.904-5.855 7.94-11.91 17.864-21.833 9.923-9.924 15.978-13.96 21.834-17.864l.006-.004c3.553-2.369 7.179-4.787 11.68-8.51l.959.959c-5.423 4.697-9.552 7.45-13.585 10.139l-.003.001c-5.923 3.949-12.048 8.033-22.089 18.074-10.041 10.041-14.125 16.167-18.074 22.089l-.001.003c-3.904 5.855-7.94 11.91-17.864 21.833-3.087 3.087-5.799 5.604-8.248 7.725l-.959-.959c3-2.483 6.389-5.545 10.405-9.561 10.041-10.041 14.125-16.166 18.073-22.089l.002-.003zm-23.266-35.011c10.041-10.041 16.166-14.124 22.089-18.073l.002-.002c5.856-3.903 11.91-7.94 21.834-17.864a179.753 179.753 0 003.934-4.052l-.753-.753c-.635.652-1.294 1.322-1.983 2.011-10.04 10.04-16.166 14.124-22.088 18.073l-.003.002c-5.856 3.903-11.911 7.939-21.834 17.863-9.924 9.924-13.96 15.978-17.864 21.834-3.678 5.517-7.474 11.211-16.092 20.081l.753.753c7.148-7.608 10.588-12.768 13.93-17.781 3.949-5.924 8.032-12.049 18.075-22.092zm45.123 45.123c9.924-9.923 15.978-13.96 21.834-17.863l.003-.002c5.922-3.949 12.047-8.032 22.088-18.073a182.18 182.18 0 003.935-4.052l.843.843c-.634.652-1.294 1.322-1.982 2.011-9.924 9.924-15.979 13.96-21.834 17.863l-.002.002c-5.923 3.949-12.049 8.033-22.09 18.074-10.041 10.04-14.125 16.166-18.073 22.089l-.002.002c-3.633 5.449-7.381 11.071-15.881 19.823l-.843-.843c7.262-7.723 10.75-12.954 14.137-18.035l.003-.005c3.904-5.855 7.941-11.91 17.864-21.834zm-5.191-5.191c10.041-10.041 16.166-14.124 22.089-18.073l.003-.002c5.855-3.903 11.909-7.94 21.833-17.864a179.753 179.753 0 003.934-4.052l-.753-.753c-.635.653-1.294 1.322-1.982 2.011-10.041 10.04-16.167 14.124-22.089 18.073l-.003.002c-5.856 3.903-11.911 7.94-21.834 17.863-9.924 9.924-13.96 15.978-17.864 21.834-3.678 5.518-7.474 11.211-16.092 20.081l.753.753c7.148-7.608 10.588-12.768 13.93-17.781 3.949-5.924 8.032-12.049 18.075-22.092zm-34.741-34.741c9.924-9.923 15.978-13.96 21.834-17.863l.003-.002c5.922-3.949 12.047-8.033 22.088-18.073a184.451 184.451 0 003.935-4.052l.843.843c-.634.652-1.294 1.322-1.982 2.011-9.924 9.923-15.979 13.96-21.834 17.863l-.002.002c-5.923 3.948-12.049 8.033-22.09 18.073-10.041 10.041-14.125 16.167-18.074 22.09l-.001.002c-3.633 5.449-7.381 11.071-15.881 19.823l-.843-.843c7.262-7.723 10.75-12.954 14.137-18.035l.003-.005c3.904-5.855 7.94-11.91 17.864-21.834z" fill="#8083CF"/></g><path fill-rule="evenodd" clip-rule="evenodd" d="M360 260v60h120V200h-60c0 33.137-26.863 60-60 60z" fill="#6439ED"/><path fill-rule="evenodd" clip-rule="evenodd" d="M154 224c-5.523 0-10 4.477-10 10s4.477 10 10 10v-20z" fill="#8083CF"/><path fill-rule="evenodd" clip-rule="evenodd" d="M154 224c5.523 0 10 4.477 10 10s-4.477 10-10 10v-20z" fill="#FBFBFB"/></svg>