<svg width="480" height="620" fill="none" xmlns="http://www.w3.org/2000/svg"><path d="M120.5 320L97 402.5l59-25-35.5-57.5z" fill="#A2F8CC"/><path d="M120.5 320L66 393l31 9.5 23.5-82.5z" fill="#B0FBD5"/><path d="M156 377.5L120.5 320l73.5 42-38 15.5z" fill="#D4FEE9"/><path d="M156 377.5l84 48.5-46-64-38 15.5z" fill="#B9FEDA"/><path d="M156 377.5l84 48.5v14h-33.5L156 377.5z" fill="#94F4C3"/><path d="M156 377.5l3 62.5h47.5L156 377.5z" fill="#A2F8CC"/><path d="M156 377.5l3 62.5h-33l-15-13.5 45-49z" fill="#B0FBD5"/><path d="M156 377.5l-59 25 14 24 45-49z" fill="#ACFED4"/><path d="M67.5 440L97 402.5l14 24L72 440h-4.5z" fill="#C2FEE0"/><path d="M67.5 440L97 402.5 66 393l1.5 47z" fill="#D4FEE9"/><path d="M0 437l66-44 1.5 47H40l-40-3z" fill="#C5FEE1"/><path d="M0 437l66-44-11.5-64L0 437z" fill="#B0FBD5"/><path d="M47.5 320l7 9L0 437V320h47.5z" fill="#A2F8CC"/><path d="M120.5 320L66 393l-11.5-64 66-9z" fill="#C5FEE1"/><path d="M120.5 320H63l-8.5 9 66-9z" fill="#B9FEDA"/><path d="M47.5 320H63l-8.5 9-7-9z" fill="#B0FBD5"/><path d="M0 437v3h40l-40-3zM72 440h54l-15-13.5L72 440z" fill="#A2F8CC"/><path d="M187 320h-66.5l73.5 42-7-42z" fill="#B9FEDA"/><path d="M187 320h53v12.5L194 362l-7-42z" fill="#C5FEE1"/><path d="M240 365.5v-33L194 362l46 3.5z" fill="#94F4C3"/><path d="M240 365.5V426l-46-64 46 3.5z" fill="#B0FBD5"/><rect x="44" y="426" width="28" height="28" rx="14" fill="#6439ED"/><path fill-rule="evenodd" clip-rule="evenodd" d="M96 440H44c0-14.359 11.64-26 26-26s26 11.641 26 26z" fill="#F7C595"/><path fill-rule="evenodd" clip-rule="evenodd" d="M360 576c8.837 0 16-7.163 16-16h-32c0 8.837 7.163 16 16 16z" fill="#6439ED"/><mask id="prefix__a" style="mask-type:alpha" maskUnits="userSpaceOnUse" x="234" y="434" width="126" height="126"><path d="M360 434v126H234l126-126z" fill="#FBB5B5"/></mask><g mask="url(#prefix__a)"><path d="M360 434v126H234l126-126z" fill="#F7C595"/><ellipse cx="360.5" cy="560" rx="38.5" ry="38" fill="#ACFED4"/><circle cx="360" cy="560" r="16" fill="#8083CF"/></g></svg>