<svg width="480" height="620" viewBox="0 0 480 620" fill="none" xmlns="http://www.w3.org/2000/svg">
<circle cx="360" cy="560" r="60" fill="#8083CF"/>
<mask id="mask0_207_15232" style="mask-type:alpha" maskUnits="userSpaceOnUse" x="120" y="320" width="240" height="240">
<rect x="120" y="320" width="240" height="240" fill="#ACFED4"/>
</mask>
<g mask="url(#mask0_207_15232)">
<rect x="120" y="320" width="240" height="240" fill="#F97F9C"/>
</g>
<rect x="240" y="80" width="120" height="120" fill="#8083CF"/>
<rect x="300" y="140" width="120" height="120" rx="60" fill="#ACFED4"/>
<path fill-rule="evenodd" clip-rule="evenodd" d="M360 140V200H300C300 166.863 326.863 140 360 140Z" fill="#F7C595"/>
<path d="M412.502 114.925L454.925 72.502C460.523 77.9519 464 85.5699 464 94C464 110.569 450.569 124 434 124C425.57 124 417.952 120.523 412.502 114.925Z" fill="#ACFED4"/>
<path d="M434 64C417.431 64 404 77.4315 404 94C404 102.138 407.241 109.52 412.502 114.924L454.924 72.5019C449.52 67.2407 442.138 64 434 64Z" fill="#F97F9C"/>
<rect x="345" width="28" height="28" rx="14" fill="#F7C595"/>
<path fill-rule="evenodd" clip-rule="evenodd" d="M240 200H120V320H240V200ZM154 224C148.477 224 144 228.477 144 234C144 239.523 148.477 244 154 244C159.523 244 164 239.523 164 234C164 228.477 159.523 224 154 224Z" fill="#F97F9C"/>
<mask id="mask1_207_15232" style="mask-type:alpha" maskUnits="userSpaceOnUse" x="360" y="200" width="60" height="60">
<rect x="360" y="200" width="60" height="60" fill="#D9D9D9"/>
</mask><g mask="url(#mask1_207_15232)">
<path fill-rule="evenodd" clip-rule="evenodd" d="M376.656 162.128C379.094 160.198 381.781 157.9 384.864 155L385.581 155.717C380.777 160.062 376.975 162.895 373.484 165.3L376.656 162.128ZM372.943 226.936C382.867 217.013 388.922 212.976 394.777 209.073L394.78 209.071L394.78 209.071C400.702 205.122 406.828 201.038 416.868 190.998C417.557 190.309 418.216 189.639 418.851 188.987L419.664 189.8C409.74 199.724 403.685 203.76 397.83 207.663L397.828 207.665C391.905 211.613 385.779 215.698 375.738 225.738C365.698 235.779 361.613 241.905 357.665 247.828L357.663 247.83C353.76 253.685 349.723 259.74 339.8 269.664L338.987 268.851C347.605 259.981 351.401 254.288 355.08 248.77C358.983 242.915 363.02 236.86 372.943 226.936ZM399.005 288.702C402.908 282.847 406.945 276.792 416.868 266.868C426.792 256.945 432.847 252.908 438.702 249.005L438.705 249.003C444.628 245.054 450.753 240.971 460.794 230.93L461.578 231.714C452.826 240.214 447.204 243.963 441.755 247.595L441.753 247.597C435.83 251.546 429.705 255.63 419.664 265.671C409.623 275.711 405.539 281.837 401.59 287.76L401.588 287.762C397.685 293.617 393.648 299.672 383.725 309.596C383.036 310.285 382.366 310.944 381.714 311.578L380.93 310.794C390.97 300.753 395.054 294.628 399.003 288.705L399.005 288.702ZM425.78 235.618L425.78 235.618L425.783 235.616C431.638 231.712 437.692 227.676 447.616 217.752L446.803 216.939C437.933 225.557 432.24 229.353 426.722 233.032L426.72 233.033C420.866 236.936 414.811 240.973 404.889 250.896C394.965 260.819 390.929 266.874 387.025 272.729L387.023 272.732C383.075 278.655 378.991 284.78 368.95 294.821C368.262 295.509 367.592 296.169 366.939 296.803L367.752 297.616C377.676 287.693 381.712 281.638 385.616 275.783L385.618 275.78C389.566 269.857 393.65 263.732 403.691 253.691C413.732 243.65 419.857 239.566 425.78 235.618ZM376.936 226.936C367.013 236.86 362.976 242.915 359.073 248.77L359.071 248.773L359.071 248.773C355.122 254.696 351.038 260.821 340.998 270.862L341.782 271.646C342.434 271.012 343.104 270.353 343.793 269.664C353.716 259.74 357.753 253.685 361.656 247.83L361.658 247.828L361.658 247.828C365.607 241.905 369.691 235.779 379.732 225.738C389.773 215.698 395.898 211.613 401.821 207.665L401.823 207.663C407.272 204.031 412.894 200.282 421.646 191.782L420.862 190.998C410.821 201.038 404.696 205.122 398.773 209.071L398.77 209.073C392.915 212.976 386.86 217.013 376.936 226.936ZM385.848 195.686L385.847 195.686C379.925 199.634 373.8 203.718 363.759 213.759C353.718 223.8 349.634 229.925 345.685 235.848L345.684 235.85C341.78 241.706 337.743 247.761 327.82 257.684L327.007 256.871C327.66 256.237 328.33 255.577 329.018 254.889C339.059 244.848 343.143 238.723 347.091 232.8L347.093 232.797C350.997 226.942 355.033 220.887 364.957 210.964C374.879 201.041 380.934 197.004 386.788 193.101L386.79 193.1C392.308 189.421 398.001 185.625 406.871 177.007L407.684 177.82C397.76 187.744 391.706 191.78 385.85 195.684L385.848 195.686ZM363.759 217.752C373.8 207.711 379.925 203.627 385.848 199.679L385.85 199.677C391.706 195.773 397.76 191.737 407.684 181.813C408.373 181.124 409.032 180.455 409.666 179.802L408.882 179.018C398.841 189.059 392.716 193.143 386.793 197.091L386.79 197.093C380.935 200.997 374.88 205.033 364.957 214.957C355.033 224.88 350.997 230.935 347.093 236.79L347.091 236.793L347.091 236.793C343.143 242.716 339.059 248.841 329.018 258.882L329.802 259.666C338.302 250.915 342.051 245.292 345.684 239.844L345.685 239.841C349.634 233.918 353.718 227.793 363.759 217.752ZM386.781 156.917L387.457 157.592C382.033 162.29 377.905 165.042 373.871 167.731L373.863 167.737L373.863 167.737L373.862 167.737L373.862 167.737C370.812 169.771 367.706 171.842 364.04 174.744L367.211 171.572C368.43 170.733 369.611 169.945 370.784 169.163L370.818 169.141L370.822 169.138L370.823 169.137C375.434 166.063 380.17 162.905 386.781 156.917ZM333.704 207.898C335.74 204.844 337.811 201.736 340.717 198.067L333.552 205.232C332.72 206.439 331.94 207.609 331.165 208.771L331.12 208.838L331.118 208.841C327.17 214.764 323.086 220.889 313.045 230.93C310.824 233.151 308.795 235.08 306.917 236.781L307.592 237.457C310.041 235.335 312.753 232.819 315.84 229.732C325.764 219.808 329.801 213.753 333.704 207.898ZM347.093 220.818C350.997 214.962 355.033 208.907 364.957 198.984C374.88 189.06 380.935 185.024 386.79 181.12C390.897 178.383 395.1 175.58 400.638 170.774L401.554 171.69C395.057 177.566 390.394 180.675 385.85 183.704L385.848 183.706L385.847 183.706C379.925 187.655 373.8 191.738 363.759 201.779C353.718 211.82 349.634 217.945 345.685 223.868L345.684 223.871C341.78 229.726 337.743 235.781 327.82 245.704C325.596 247.929 323.566 249.856 321.69 251.554L320.774 250.638C323.225 248.51 325.937 245.99 329.018 242.909C339.059 232.868 343.143 226.743 347.091 220.821L347.093 220.818ZM373.636 247.83L373.638 247.828C377.586 241.905 381.67 235.779 391.711 225.738C401.752 215.698 407.878 211.613 413.801 207.665L413.803 207.663C417.837 204.974 421.965 202.222 427.389 197.524L426.713 196.849C420.102 202.837 415.366 205.995 410.754 209.07L410.75 209.073C404.894 212.976 398.84 217.013 388.916 226.936C378.993 236.86 374.956 242.915 371.052 248.77L371.05 248.773L371.05 248.773C367.102 254.696 363.018 260.821 352.977 270.862C350.756 273.083 348.727 275.012 346.849 276.713L347.524 277.389C349.973 275.267 352.685 272.751 355.772 269.664C365.696 259.74 369.733 253.685 373.636 247.83ZM387.025 260.75C390.929 254.894 394.965 248.84 404.889 238.916C414.812 228.993 420.867 224.956 426.723 221.052C430.829 218.315 435.032 215.512 440.57 210.706L441.486 211.622C434.989 217.498 430.326 220.607 425.783 223.636L425.78 223.638C419.857 227.586 413.732 231.67 403.691 241.711C393.65 251.752 389.566 257.878 385.617 263.801L385.616 263.803C381.712 269.658 377.676 275.713 367.752 285.637C365.528 287.861 363.498 289.788 361.622 291.486L360.706 290.57C363.157 288.442 365.869 285.922 368.95 282.841C378.991 272.8 383.075 266.675 387.023 260.753L387.025 260.75ZM428.848 266.868C420.931 274.786 416.761 280.241 413.416 285.096L420.581 277.931C423.311 274.482 426.778 270.536 431.643 265.671C436.509 260.805 440.454 257.339 443.904 254.608L447.075 251.436C442.22 254.781 436.765 258.951 428.848 266.868ZM320.114 218.669L327.279 211.504C323.934 216.36 319.764 221.814 311.848 229.732C309.623 231.956 307.594 233.884 305.717 235.581L305 234.864C306.279 233.661 307.626 232.356 309.052 230.93C313.917 226.064 317.384 222.118 320.114 218.669ZM424.855 266.868C414.931 276.792 410.895 282.847 406.991 288.702C404.956 291.756 402.884 294.864 399.978 298.533L407.143 291.368C407.975 290.161 408.756 288.991 409.53 287.829L409.575 287.762L409.576 287.76C413.525 281.837 417.609 275.711 427.65 265.671C437.691 255.63 443.817 251.546 449.74 247.597L449.742 247.595L449.773 247.574C450.947 246.792 452.129 246.004 453.348 245.164L456.52 241.992C452.853 244.894 449.748 246.965 446.697 248.999L446.689 249.005C440.833 252.908 434.778 256.945 424.855 266.868ZM363.066 248.77C366.969 242.915 371.006 236.86 380.93 226.936C390.85 217.016 396.904 212.979 402.757 209.076L402.762 209.072C408.28 205.393 413.974 201.598 422.844 192.979L423.597 193.732C415.988 200.881 410.829 204.32 405.816 207.663L405.816 207.663L405.816 207.663L405.814 207.664C399.891 211.613 393.765 215.697 383.724 225.738C373.684 235.779 369.6 241.905 365.651 247.827L365.649 247.83C361.746 253.685 357.709 259.74 347.786 269.663C346.358 271.091 345.011 272.396 343.733 273.597L342.98 272.844C343.633 272.21 344.302 271.55 344.991 270.862C355.032 260.821 359.115 254.696 363.064 248.773L363.064 248.773L363.066 248.77ZM345.684 231.857L345.686 231.854L345.686 231.854C349.634 225.932 353.718 219.806 363.759 209.766C373.8 199.725 379.925 195.641 385.848 191.692L385.85 191.69C391.299 188.058 396.921 184.309 405.673 175.809L404.83 174.966C397.106 182.229 391.875 185.717 386.793 189.105L386.793 189.105L386.79 189.107C380.935 193.01 374.88 197.047 364.957 206.97C355.033 216.894 350.997 222.949 347.093 228.804L347.091 228.807C343.143 234.73 339.059 240.855 329.018 250.896C327.592 252.322 326.245 253.627 324.966 254.83L325.809 255.673C326.461 255.039 327.131 254.38 327.82 253.691C337.743 243.767 341.78 237.712 345.684 231.857ZM385.617 271.787L385.616 271.789C381.712 277.645 377.676 283.699 367.752 293.623C367.063 294.312 366.394 294.971 365.741 295.605L364.898 294.762C366.177 293.559 367.524 292.254 368.95 290.828C378.991 280.787 383.075 274.662 387.023 268.739L387.025 268.736C390.929 262.881 394.965 256.826 404.889 246.902C414.812 236.979 420.867 232.942 426.723 229.039L426.725 229.037C431.807 225.649 437.038 222.161 444.762 214.898L445.605 215.741C436.853 224.241 431.231 227.99 425.783 231.622L425.78 231.624C419.857 235.573 413.732 239.657 403.691 249.698C393.65 259.739 389.566 265.864 385.617 271.787ZM420.862 266.868C410.938 276.792 406.901 282.847 402.998 288.702L402.996 288.705C399.047 294.628 394.964 300.753 384.923 310.794C384.234 311.482 383.565 312.142 382.912 312.776L383.665 313.529C384.943 312.328 386.29 311.023 387.718 309.595C397.641 299.672 401.678 293.617 405.581 287.762L405.583 287.76C409.532 281.837 413.616 275.711 423.657 265.67C433.697 255.629 439.823 251.545 445.746 247.596L445.746 247.596L445.748 247.595C450.761 244.253 455.92 240.813 463.529 233.665L462.776 232.911C453.906 241.53 448.212 245.326 442.695 249.004L442.689 249.008C436.836 252.911 430.782 256.948 420.862 266.868ZM347.093 224.811C350.997 218.956 355.033 212.901 364.957 202.977C374.88 193.054 380.935 189.017 386.79 185.114L386.795 185.11C391.407 182.035 396.142 178.878 402.754 172.89L403.631 173.767C396.023 180.915 390.864 184.355 385.851 187.697L385.851 187.697L385.85 187.697L385.848 187.699C379.925 191.648 373.8 195.732 363.759 205.772C353.72 215.811 349.636 221.936 345.688 227.857L345.683 227.864C341.78 233.719 337.743 239.774 327.82 249.697C326.392 251.125 325.045 252.43 323.767 253.631L322.89 252.754C324.768 251.053 326.797 249.123 329.018 246.902C339.059 236.862 343.143 230.736 347.091 224.814L347.093 224.811ZM369.643 247.83L369.644 247.828C373.593 241.905 377.677 235.779 387.718 225.738C397.759 215.698 403.885 211.613 409.808 207.665L409.81 207.663C414.353 204.634 419.016 201.525 425.513 195.649L424.796 194.932C417.072 202.195 411.84 205.683 406.759 209.07L406.756 209.072L406.754 209.074C400.9 212.977 394.845 217.014 384.923 226.936C374.999 236.86 370.963 242.915 367.059 248.77L367.057 248.773C363.109 254.696 359.025 260.821 348.984 270.862C347.558 272.288 346.211 273.593 344.932 274.796L345.649 275.513C347.526 273.816 349.555 271.888 351.78 269.664C361.703 259.74 365.739 253.685 369.643 247.83ZM387.025 264.743C390.929 258.888 394.965 252.833 404.889 242.909C414.811 232.987 420.866 228.95 426.72 225.047L426.72 225.047L426.72 225.047L426.722 225.045L426.727 225.042L426.727 225.042C431.339 221.967 436.074 218.81 442.685 212.821L443.563 213.699C435.954 220.847 430.795 224.287 425.782 227.629L425.78 227.63C419.857 231.579 413.731 235.663 403.691 245.704C393.65 255.745 389.566 261.871 385.617 267.793L385.615 267.796C381.712 273.651 377.675 279.706 367.752 289.629C366.324 291.057 364.977 292.362 363.699 293.563L362.822 292.686C364.7 290.985 366.729 289.056 368.95 286.835C378.991 276.794 383.075 270.668 387.023 264.746L387.025 264.743ZM364.957 190.998C355.033 200.921 350.997 206.976 347.093 212.831L347.091 212.834L347.091 212.834L347.091 212.834C343.143 218.757 339.059 224.882 329.018 234.923C323.985 239.956 319.935 243.493 316.401 246.266L317.408 247.272C320.405 244.8 323.794 241.744 327.82 237.718C337.744 227.795 341.78 221.74 345.684 215.884L345.686 215.882L345.686 215.882C349.634 209.959 353.718 203.834 363.759 193.793C373.8 183.752 379.925 179.668 385.848 175.719L385.85 175.718L385.855 175.715C389.333 173.396 392.883 171.029 397.273 167.408L396.266 166.402C392.75 169.161 389.745 171.164 386.79 173.134C380.935 177.037 374.88 181.074 364.957 190.998ZM425.78 247.597L425.78 247.597C419.857 251.546 413.732 255.63 403.691 265.671C393.648 275.713 389.565 281.839 385.616 287.763C382.587 292.306 379.478 296.969 373.602 303.466L372.885 302.749C380.147 295.026 383.634 289.795 387.022 284.714L387.025 284.709C390.929 278.854 394.965 272.799 404.889 262.875C414.811 252.953 420.866 248.916 426.72 245.013L426.72 245.013L426.72 245.013L426.722 245.011L426.725 245.009C432.648 241.061 438.773 236.977 448.814 226.936C450.24 225.51 451.546 224.163 452.748 222.884L453.465 223.601C451.768 225.478 449.84 227.507 447.616 229.732C437.692 239.656 431.638 243.692 425.783 247.595L425.78 247.597ZM389.609 287.762L389.61 287.76C393.559 281.837 397.643 275.711 407.684 265.671C417.725 255.63 423.851 251.546 429.774 247.597L429.776 247.595C435.631 243.692 441.685 239.656 451.609 229.732C453.037 228.304 454.342 226.957 455.543 225.679L454.666 224.802C452.965 226.68 451.036 228.709 448.815 230.93C438.774 240.971 432.648 245.055 426.726 249.003L426.726 249.003L426.723 249.005C420.867 252.908 414.812 256.945 404.889 266.868C394.965 276.792 390.929 282.847 387.025 288.702C383.95 293.316 380.791 298.052 374.801 304.665L375.679 305.543C382.827 297.934 386.267 292.775 389.609 287.762ZM349.678 247.828L349.677 247.83L349.677 247.83L349.677 247.83C346.334 252.843 342.895 258.002 335.747 265.611L334.869 264.733C340.859 258.12 344.018 253.384 347.093 248.77C350.997 242.915 355.033 236.86 364.957 226.936C374.88 217.013 380.935 212.976 386.791 209.073L386.794 209.071L386.794 209.071C392.716 205.123 398.842 201.039 408.882 190.998C411.104 188.777 413.033 186.748 414.734 184.87L415.611 185.747C414.41 187.025 413.105 188.372 411.677 189.8C401.753 199.724 395.699 203.76 389.844 207.663L389.842 207.665C383.919 211.613 377.793 215.698 367.752 225.738C357.711 235.779 353.627 241.905 349.678 247.828L349.678 247.828ZM363.759 225.738C373.8 215.698 379.925 211.614 385.848 207.665L385.85 207.663C391.706 203.76 397.76 199.723 407.684 189.8C409.908 187.575 411.836 185.546 413.533 183.669L412.816 182.952C411.614 184.231 410.308 185.578 408.882 187.004C398.841 197.045 392.716 201.129 386.793 205.077L386.79 205.079L386.788 205.081C380.934 208.984 374.879 213.021 364.957 222.943C355.033 232.867 350.997 238.922 347.093 244.777L347.09 244.782C343.702 249.863 340.215 255.093 332.952 262.817L333.67 263.534C339.546 257.037 342.655 252.374 345.684 247.83C349.633 241.907 353.716 235.781 363.759 225.738ZM341.692 207.895L341.69 207.898C337.787 213.753 333.75 219.808 323.827 229.732C318.777 234.781 314.73 238.306 311.201 241.065L310.626 240.49C313.627 238.008 317.016 234.945 321.032 230.93C331.072 220.889 335.156 214.764 339.105 208.841L339.105 208.841L339.107 208.838C343.01 202.983 347.047 196.928 356.97 187.004C366.894 177.081 372.949 173.044 378.804 169.141L378.81 169.137L378.81 169.137C382.363 166.768 385.989 164.35 390.49 160.626L391.065 161.201C387.662 163.861 384.741 165.808 381.869 167.723L381.857 167.731L381.854 167.733C375.932 171.682 369.807 175.766 359.766 185.806C349.725 195.847 345.641 201.972 341.692 207.895L341.692 207.895ZM382.797 169.141C376.942 173.044 370.887 177.081 360.964 187.004C351.04 196.928 347.003 202.983 343.1 208.838L343.098 208.841L343.098 208.841C339.149 214.764 335.066 220.889 325.025 230.93C319.991 235.963 315.942 239.5 312.408 242.272L312.925 242.789C316.984 239.789 321.655 235.896 327.82 229.732C337.743 219.808 341.78 213.753 345.684 207.898L345.685 207.895L345.686 207.895L345.686 207.895C349.634 201.972 353.718 195.847 363.759 185.806C373.8 175.766 379.925 171.682 385.848 167.733L385.85 167.731C388.068 166.253 390.315 164.755 392.789 162.925L392.273 162.409C388.757 165.167 385.752 167.171 382.797 169.141ZM347.093 208.838C350.997 202.983 355.033 196.928 364.957 187.004C374.88 177.081 380.935 173.044 386.79 169.141L386.795 169.138C389.094 167.605 391.424 166.052 394.001 164.137L395.058 165.194C391.656 167.854 388.734 169.802 385.862 171.717L385.85 171.724L385.848 171.726C379.925 175.675 373.8 179.759 363.759 189.8C353.718 199.84 349.634 205.966 345.686 211.888L345.685 211.888L345.684 211.891C341.78 217.746 337.744 223.801 327.82 233.725C322.771 238.774 318.723 242.299 315.194 245.058L314.137 244.001C318.199 240.985 322.876 237.072 329.018 230.93C339.059 220.889 343.143 214.764 347.091 208.841L347.093 208.838ZM404.889 226.936C394.965 236.86 390.929 242.915 387.025 248.77L387.023 248.773C383.075 254.696 378.991 260.821 368.95 270.862C362.808 277.004 358.131 280.917 354.069 283.933L355.126 284.99C358.656 282.231 362.703 278.706 367.752 273.657C377.676 263.733 381.712 257.678 385.616 251.823L385.617 251.821C389.566 245.898 393.65 239.773 403.691 229.732C413.732 219.691 419.857 215.607 425.78 211.658L425.78 211.658L425.783 211.656L425.794 211.649L425.795 211.648L425.795 211.648C428.667 209.733 431.588 207.786 434.99 205.126L433.933 204.069C431.356 205.984 429.026 207.537 426.727 209.07L426.723 209.073C420.867 212.976 414.812 217.013 404.889 226.936ZM381.624 247.828L381.622 247.83C377.719 253.685 373.682 259.74 363.759 269.664C358.709 274.713 354.662 278.238 351.133 280.997L350.558 280.422C353.559 277.94 356.948 274.877 360.964 270.862C371.004 260.821 375.088 254.696 379.037 248.773L379.039 248.77C382.942 242.915 386.979 236.86 396.902 226.936C406.826 217.013 412.881 212.976 418.736 209.073L418.742 209.069C422.295 206.7 425.921 204.282 430.422 200.558L430.997 201.133C427.595 203.792 424.673 205.74 421.801 207.655L421.801 207.655L421.801 207.655L421.789 207.663L421.787 207.665C415.864 211.613 409.739 215.698 399.698 225.738C389.657 235.779 385.573 241.905 381.624 247.828ZM422.729 209.073C416.874 212.976 410.819 217.013 400.896 226.936C390.972 236.86 386.935 242.915 383.032 248.77L383.03 248.773C379.081 254.696 374.998 260.821 364.957 270.862C359.923 275.895 355.874 279.432 352.34 282.204L352.857 282.722C356.916 279.721 361.587 275.828 367.752 269.664C377.676 259.74 381.712 253.685 385.616 247.83L385.617 247.828C389.566 241.905 393.65 235.779 403.691 225.738C413.732 215.698 419.857 211.613 425.78 207.665L425.783 207.663C428 206.185 430.247 204.687 432.722 202.857L432.205 202.341C428.689 205.1 425.684 207.103 422.729 209.073L422.729 209.073ZM347.093 216.824C350.997 210.969 355.033 204.914 364.957 194.991C374.88 185.067 380.935 181.031 386.79 177.127L386.797 177.123C390.349 174.754 393.976 172.336 398.477 168.612L399.436 169.572C394.013 174.269 389.884 177.022 385.85 179.711L385.848 179.713C379.925 183.661 373.8 187.745 363.759 197.786C353.718 207.827 349.634 213.952 345.685 219.875L345.684 219.878C341.78 225.733 337.743 231.788 327.82 241.711C324.733 244.798 322.021 247.315 319.572 249.436L318.612 248.477C321.613 245.994 325.002 242.932 329.018 238.916C339.059 228.875 343.143 222.75 347.091 216.827L347.093 216.824ZM337.697 207.898L337.699 207.895L337.699 207.895C341.648 201.972 345.732 195.847 355.772 185.806C365.813 175.765 371.939 171.682 377.861 167.733L377.864 167.731L377.868 167.728C381.346 165.409 384.896 163.042 389.286 159.422L388.658 158.794C383.121 163.601 378.917 166.403 374.811 169.141C368.956 173.044 362.901 177.081 352.977 187.004C343.054 196.928 339.017 202.983 335.114 208.838L335.112 208.841L335.112 208.841C331.163 214.764 327.079 220.889 317.038 230.93C313.957 234.011 311.245 236.53 308.794 238.658L309.422 239.286C312.419 236.814 315.808 233.757 319.834 229.732C329.757 219.808 333.794 213.753 337.697 207.898ZM377.631 247.828L377.629 247.83C373.726 253.685 369.689 259.74 359.766 269.664C355.74 273.689 352.351 276.746 349.354 279.218L348.726 278.59C351.177 276.463 353.889 273.943 356.97 270.862C367.011 260.821 371.095 254.696 375.044 248.773L375.044 248.773L375.046 248.77C378.949 242.915 382.986 236.86 392.909 226.936C402.833 217.013 408.888 212.976 414.743 209.073C418.849 206.335 423.053 203.533 428.59 198.726L429.218 199.354C424.828 202.975 421.279 205.341 417.8 207.66L417.8 207.661L417.796 207.663L417.794 207.665C411.871 211.613 405.745 215.698 395.704 225.738C385.664 235.779 381.58 241.905 377.631 247.828ZM403.691 257.684C413.732 247.643 419.857 243.559 425.78 239.611L425.783 239.609C431.638 235.706 437.692 231.669 447.616 221.745C448.305 221.056 448.964 220.387 449.598 219.734L448.814 218.95C438.773 228.991 432.648 233.075 426.725 237.023L426.723 237.025C420.867 240.929 414.812 244.965 404.889 254.889C394.965 264.812 390.929 270.867 387.025 276.723L387.023 276.725C383.075 282.648 378.991 288.773 368.95 298.814L369.734 299.598C378.234 290.847 381.983 285.224 385.616 279.776L385.618 279.773C389.566 273.85 393.65 267.725 403.691 257.684ZM412.875 266.868C422.799 256.945 428.854 252.908 434.709 249.005L434.712 249.003L434.712 249.003C440.635 245.054 446.76 240.97 456.801 230.93C457.489 230.241 458.148 229.572 458.783 228.919L459.596 229.732C449.672 239.656 443.617 243.692 437.762 247.595L437.76 247.597C431.837 251.546 425.711 255.63 415.671 265.671C405.63 275.711 401.546 281.837 397.597 287.76L397.595 287.762C393.692 293.617 389.655 299.672 379.732 309.596L378.919 308.783C387.537 299.913 391.333 294.22 395.012 288.702C398.915 282.847 402.952 276.792 412.875 266.868ZM404.889 230.93C394.965 240.853 390.929 246.908 387.025 252.763L387.023 252.766C383.075 258.689 378.991 264.814 368.95 274.855C363.917 279.888 359.867 283.425 356.333 286.198L357.34 287.204C360.337 284.732 363.726 281.675 367.752 277.65C377.675 267.726 381.712 261.671 385.615 255.816L385.617 255.814C389.566 249.891 393.65 243.765 403.69 233.724C413.731 223.684 419.857 219.6 425.78 215.651L425.782 215.649L425.786 215.646L425.786 215.646C429.265 213.327 432.814 210.96 437.204 207.34L436.198 206.333C432.682 209.093 429.677 211.096 426.722 213.066L426.72 213.067C420.866 216.97 414.811 221.007 404.889 230.93ZM387.025 256.756C390.929 250.901 394.965 244.846 404.889 234.923C414.812 224.999 420.867 220.963 426.723 217.059L426.729 217.055L426.729 217.055L426.729 217.055C430.282 214.686 433.908 212.268 438.409 208.545L439.368 209.504C433.945 214.201 429.816 216.954 425.783 219.643L425.78 219.644C419.857 223.593 413.732 227.677 403.691 237.718C393.65 247.759 389.566 253.885 385.617 259.807L385.616 259.81C381.712 265.665 377.676 271.72 367.752 281.643C364.665 284.73 361.953 287.247 359.504 289.368L358.545 288.409C361.545 285.926 364.934 282.864 368.95 278.848C378.991 268.807 383.075 262.682 387.023 256.759L387.025 256.756ZM363.759 221.745C373.8 211.704 379.925 207.621 385.848 203.672L385.85 203.67C391.706 199.767 397.76 195.73 407.684 185.806C409.112 184.379 410.417 183.032 411.618 181.754L410.865 181.001C410.23 181.653 409.571 182.323 408.882 183.012C398.842 193.052 392.716 197.136 386.794 201.085L386.791 201.087C380.935 204.99 374.88 209.026 364.957 218.95C355.033 228.874 350.997 234.928 347.093 240.784C343.415 246.301 339.619 251.995 331.001 260.865L331.754 261.618C338.902 254.01 342.342 248.85 345.684 243.837C349.633 237.913 353.716 231.788 363.759 221.745ZM408.882 266.868C418.806 256.945 424.86 252.908 430.716 249.005L430.719 249.003C436.641 245.054 442.766 240.971 452.807 230.93C454.234 229.503 455.54 228.157 456.742 226.878L457.585 227.721C456.951 228.373 456.291 229.043 455.603 229.732C445.679 239.656 439.624 243.692 433.769 247.595L433.767 247.597C427.844 251.546 421.718 255.63 411.677 265.671C401.636 275.711 397.552 281.837 393.604 287.76L393.602 287.762C389.969 293.211 386.221 298.833 377.721 307.585L376.878 306.742C384.14 299.019 387.628 293.788 391.015 288.707L391.018 288.702C394.922 282.847 398.959 276.792 408.882 266.868ZM403.691 261.677C413.732 251.636 419.857 247.553 425.78 243.604L425.783 243.602C431.638 239.699 437.692 235.662 447.616 225.738C449.044 224.311 450.349 222.964 451.55 221.686L450.797 220.933C450.162 221.586 449.503 222.255 448.815 222.944C438.774 232.984 432.648 237.068 426.726 241.017L426.723 241.019C420.867 244.922 414.812 248.959 404.889 258.882C394.965 268.806 390.929 274.86 387.025 280.716C383.347 286.234 379.551 291.927 370.933 300.797L371.686 301.55C378.834 293.942 382.274 288.782 385.616 283.769C389.565 277.845 393.648 271.72 403.691 261.677ZM368.95 226.936C378.874 217.013 384.928 212.976 390.784 209.073L390.787 209.071C396.709 205.122 402.834 201.038 412.875 190.998C414.302 189.571 415.607 188.225 416.81 186.946L417.653 187.789C417.019 188.441 416.359 189.111 415.671 189.8C405.747 199.723 399.692 203.76 393.837 207.663L393.835 207.665C387.912 211.613 381.786 215.698 371.745 225.738C361.704 235.779 357.62 241.905 353.671 247.828L353.67 247.83C350.037 253.279 346.289 258.901 337.789 267.653L336.946 266.81C344.208 259.087 347.696 253.856 351.083 248.775L351.086 248.77C354.99 242.915 359.026 236.86 368.95 226.936Z" fill="#8083CF"/>
</g>
<path fill-rule="evenodd" clip-rule="evenodd" d="M360 260V320H480V200H420C420 233.137 393.137 260 360 260Z" fill="#6439ED"/>
<path fill-rule="evenodd" clip-rule="evenodd" d="M154 224C148.477 224 144 228.477 144 234C144 239.523 148.477 244 154 244V224Z" fill="#8083CF"/>
<path fill-rule="evenodd" clip-rule="evenodd" d="M154 224C159.523 224 164 228.477 164 234C164 239.523 159.523 244 154 244V224Z" fill="#FBFBFB"/>
</svg>
