<svg width="688" height="172" viewBox="0 0 688 172" fill="none" xmlns="http://www.w3.org/2000/svg">
<g clip-path="url(#clip0_201_627)">
<path d="M96.3379 172C94.0286 172 91.9484 170.673 90.9657 168.544C89.9174 166.267 90.3762 163.646 92.1614 161.877L167.535 86.498C167.944 86.0885 168.157 85.5151 168.125 84.9254C168.043 83.6806 167.093 83.222 166.798 83.1073C166.503 82.9927 165.488 82.6979 164.62 83.5824L78.0759 170.1C76.7001 171.492 74.7511 172.098 72.8348 171.754C70.6401 171.345 68.8875 169.789 68.2324 167.676C67.5772 165.563 68.1342 163.286 69.6901 161.714L164.718 66.6949C165.258 66.1543 165.455 65.3681 165.242 64.6474C164.931 63.6319 164.112 63.3207 163.768 63.2388C163.424 63.1569 162.556 63.0258 161.819 63.7793L60.256 165.35C58.5527 167.053 56.0141 167.561 53.7702 166.627C51.9522 165.858 50.6256 164.236 50.2489 162.303C49.8558 160.354 50.4619 158.356 51.8704 156.947L158.363 50.4462C159.002 49.8074 159.149 48.8082 158.723 48.022C158.396 47.4323 157.839 47.0556 157.217 46.9573C156.561 46.8754 155.906 47.0721 155.448 47.5471L45.4009 157.602C43.3864 159.617 40.2253 159.912 37.8668 158.306C36.4091 157.307 35.4755 155.735 35.3117 153.966C35.1315 152.197 35.754 150.461 37.0151 149.216L149.371 36.851C150.125 36.0976 150.174 34.9183 149.502 34.0829C149.109 33.6407 148.585 33.3786 147.995 33.3459C147.439 33.3131 146.865 33.5261 146.456 33.9519L32.9696 147.43C30.6602 149.74 26.9095 149.74 24.5838 147.43C23.4701 146.3 22.8641 144.81 22.8641 143.237C22.8641 141.648 23.4701 140.158 24.5838 139.044L138.07 25.549C138.496 25.1395 138.693 24.5827 138.66 24.0094C138.643 23.4198 138.381 22.8955 137.939 22.5188C137.104 21.8308 135.908 21.88 135.155 22.6335L22.7986 134.998C21.5539 136.259 19.8178 136.882 18.0489 136.718C16.28 136.538 14.6913 135.604 13.7086 134.13C12.1199 131.788 12.3983 128.626 14.4128 126.612L124.46 16.5567C124.935 16.098 125.148 15.4592 125.049 14.804C124.951 14.1488 124.574 13.6083 124.001 13.297C123.198 12.8548 122.199 13.0023 121.561 13.6411L15.0515 120.158C13.6593 121.551 11.6612 122.156 9.71219 121.78C7.77953 121.403 6.158 120.076 5.38821 118.258C4.45464 116.03 4.9625 113.475 6.66586 111.772L108.245 10.1849C108.982 9.44781 108.867 8.56341 108.786 8.23581C108.687 7.89184 108.392 7.05647 107.377 6.76164C106.623 6.53232 105.854 6.72882 105.313 7.26935L10.2854 102.304C8.72948 103.877 6.43643 104.434 4.32361 103.779C2.21079 103.123 0.654866 101.354 0.261783 99.1758C-0.0985429 97.2593 0.523839 95.2938 1.89963 93.9179L88.427 7.38404C89.295 6.51591 89.0003 5.5004 88.902 5.20557C88.7874 4.91073 88.3288 3.94424 87.1004 3.87872C86.5272 3.82958 85.9375 4.05899 85.5117 4.46848L10.1216 79.8642C8.35277 81.6496 5.73219 82.1082 3.45558 81.0599C1.17898 80.028 -0.164057 77.7349 0.0161063 75.2288C0.130756 73.8201 0.736758 72.4769 1.73584 71.4778L61.7794 11.4299C62.8112 10.4143 62.3034 9.28411 62.1233 8.9729C61.9431 8.6453 61.2551 7.62967 59.8466 7.97364C59.4699 8.07192 59.126 8.25216 58.8803 8.53061L26.4019 40.9952C24.2727 43.1246 21.0788 43.3702 18.6548 41.552C16.2471 39.7503 15.5593 36.6381 17.0006 33.9846C17.2627 33.4768 17.6066 33.0183 18.0161 32.6088L32.3308 18.2929C33.0842 17.5394 34.3126 17.5394 35.066 18.2929C35.8194 19.0463 35.8194 20.2748 35.066 21.0283L20.7513 35.3442C20.6039 35.4916 20.4892 35.6553 20.391 35.8191C19.5884 37.3097 20.7349 38.2762 20.9805 38.4564C21.2098 38.6365 22.471 39.4555 23.6667 38.2598L56.1288 5.77886C56.8986 5.00901 57.8812 4.46848 58.9295 4.22279C61.5336 3.58398 64.1869 4.73046 65.4971 7.07276C66.8238 9.41505 66.4307 12.2651 64.5144 14.1651L4.48739 74.2132C4.14345 74.5736 3.93065 75.0322 3.88152 75.5236C3.78325 76.8503 4.76592 77.4072 5.07711 77.5382C5.37193 77.6857 6.45284 78.0624 7.38641 77.1288L82.7764 1.73304C83.972 0.537324 85.6264 -0.101484 87.3298 0.0131738C89.6883 0.144211 91.6864 1.61835 92.5053 3.82961C93.357 6.04087 92.8492 8.44875 91.1622 10.1195L4.63486 96.6534C4.15989 97.1284 3.94697 97.8164 4.06162 98.4879C4.20902 99.2578 4.74954 99.8473 5.48658 100.077C6.22361 100.306 6.99333 100.126 7.5502 99.5689L102.578 4.5339C104.118 2.99421 106.378 2.42099 108.474 3.04342C110.505 3.64946 112.012 5.2382 112.536 7.28566C113.044 9.33312 112.471 11.4298 110.964 12.9203L9.40093 114.507C8.81131 115.097 8.63127 115.981 8.95884 116.751C9.23727 117.406 9.77764 117.849 10.4655 117.98C11.1534 118.111 11.825 117.914 12.3327 117.423L118.826 10.9057C120.66 9.07114 123.559 8.64524 125.835 9.8901C127.49 10.791 128.603 12.3797 128.882 14.247C129.144 16.1143 128.554 17.949 127.195 19.2921L17.1481 129.347C16.4602 130.052 16.3455 131.149 16.9024 131.968C17.2463 132.476 17.8031 132.803 18.4091 132.853C19.0151 132.918 19.6212 132.705 20.0634 132.263L132.42 19.898C134.598 17.7195 138.021 17.5722 140.396 19.5378C141.673 20.6025 142.46 22.1585 142.541 23.8128C142.623 25.4836 141.985 27.1051 140.805 28.2845L27.3353 141.779C26.9423 142.173 26.713 142.68 26.713 143.237C26.713 143.778 26.9423 144.302 27.3353 144.695C28.1215 145.498 29.4318 145.498 30.2344 144.695L143.721 31.2C144.9 30.0207 146.538 29.3983 148.192 29.4802C149.846 29.5621 151.419 30.332 152.467 31.626C154.432 34.001 154.269 37.4244 152.107 39.6029L39.7503 151.951C39.3081 152.377 39.0951 152.983 39.1606 153.606C39.2261 154.212 39.5373 154.768 40.0614 155.112C40.864 155.653 41.9614 155.555 42.6657 154.867L152.712 44.7952C154.039 43.4684 155.906 42.8625 157.757 43.1246C159.624 43.403 161.213 44.5168 162.114 46.1711C163.359 48.4643 162.933 51.3472 161.098 53.1981L54.6055 159.699C54.0977 160.19 53.9012 160.862 54.0322 161.55C54.1796 162.238 54.6219 162.778 55.2771 163.057C56.0305 163.368 56.9313 163.204 57.521 162.598L159.067 61.0439C160.558 59.5533 162.671 58.9636 164.718 59.4878C166.765 59.9956 168.338 61.5025 168.944 63.5336C169.582 65.6138 169.009 67.8742 167.47 69.4303L72.4254 164.465C71.8849 165.006 71.6883 165.792 71.934 166.529C72.1469 167.266 72.7528 167.807 73.5226 167.938C74.1941 168.069 74.8657 167.856 75.3407 167.365L161.868 80.8305C163.539 79.1598 165.946 78.6521 168.174 79.4875C170.385 80.3229 171.843 82.3211 171.99 84.6797C172.088 86.3832 171.466 88.0376 170.254 89.2497L94.8965 164.613C93.9629 165.546 94.3396 166.627 94.487 166.922C94.618 167.234 95.175 168.2 96.5017 168.118C96.9931 168.085 97.468 167.872 97.812 167.528L157.823 107.513C159.706 105.613 162.572 105.22 164.914 106.53C167.257 107.857 168.403 110.494 167.764 113.099C167.519 114.163 166.978 115.13 166.208 115.9L133.828 148.266C132.632 149.478 133.468 150.723 133.632 150.952C133.812 151.198 134.778 152.344 136.269 151.542C136.432 151.443 136.612 151.329 136.743 151.181L150.894 137.029C151.648 136.276 152.876 136.276 153.63 137.029C154.383 137.783 154.383 139.011 153.63 139.765L139.479 153.917C139.069 154.326 138.611 154.67 138.103 154.949C135.466 156.374 132.338 155.686 130.536 153.278C128.718 150.854 128.964 147.676 131.093 145.53L163.473 113.164C163.735 112.902 163.915 112.558 164.014 112.181C164.358 110.789 163.342 110.085 163.015 109.904C162.703 109.724 161.573 109.233 160.558 110.249L100.547 170.264C99.548 171.263 98.2214 171.869 96.7965 171.984C96.6491 171.984 96.5017 172 96.3379 172Z" fill="#ACFED4" fill-opacity="0.4"/>
<path d="M268.338 172C266.029 172 263.948 170.673 262.966 168.544C261.917 166.267 262.376 163.646 264.161 161.877L339.535 86.498C339.944 86.0885 340.157 85.5151 340.125 84.9254C340.043 83.6806 339.093 83.222 338.798 83.1073C338.503 82.9927 337.488 82.6979 336.62 83.5824L250.076 170.1C248.7 171.492 246.751 172.098 244.835 171.754C242.64 171.345 240.888 169.789 240.232 167.676C239.577 165.563 240.134 163.286 241.69 161.714L336.718 66.6949C337.258 66.1543 337.455 65.3681 337.242 64.6474C336.931 63.6319 336.112 63.3207 335.768 63.2388C335.424 63.1569 334.556 63.0258 333.819 63.7793L232.256 165.35C230.553 167.053 228.014 167.561 225.77 166.627C223.952 165.858 222.626 164.236 222.249 162.303C221.856 160.354 222.462 158.356 223.87 156.947L330.363 50.4462C331.002 49.8074 331.149 48.8082 330.723 48.022C330.396 47.4323 329.839 47.0556 329.217 46.9573C328.561 46.8754 327.906 47.0721 327.448 47.5471L217.401 157.602C215.386 159.617 212.225 159.912 209.867 158.306C208.409 157.307 207.475 155.735 207.312 153.966C207.132 152.197 207.754 150.461 209.015 149.216L321.371 36.851C322.125 36.0976 322.174 34.9183 321.502 34.0829C321.109 33.6407 320.585 33.3786 319.995 33.3459C319.439 33.3131 318.865 33.5261 318.456 33.9519L204.97 147.43C202.66 149.74 198.91 149.74 196.584 147.43C195.47 146.3 194.864 144.81 194.864 143.237C194.864 141.648 195.47 140.158 196.584 139.044L310.07 25.549C310.496 25.1395 310.693 24.5827 310.66 24.0094C310.643 23.4198 310.381 22.8955 309.939 22.5188C309.104 21.8308 307.908 21.88 307.155 22.6335L194.799 134.998C193.554 136.259 191.818 136.882 190.049 136.718C188.28 136.538 186.691 135.604 185.709 134.13C184.12 131.788 184.398 128.626 186.413 126.612L296.46 16.5567C296.935 16.098 297.148 15.4592 297.049 14.804C296.951 14.1488 296.574 13.6083 296.001 13.297C295.198 12.8548 294.199 13.0023 293.561 13.6411L187.051 120.158C185.659 121.551 183.661 122.156 181.712 121.78C179.78 121.403 178.158 120.076 177.388 118.258C176.455 116.03 176.962 113.475 178.666 111.772L280.245 10.1849C280.982 9.44781 280.867 8.56341 280.786 8.23581C280.687 7.89184 280.392 7.05647 279.377 6.76164C278.623 6.53232 277.854 6.72882 277.313 7.26935L182.285 102.304C180.729 103.877 178.436 104.434 176.324 103.779C174.211 103.123 172.655 101.354 172.262 99.1758C171.901 97.2593 172.524 95.2938 173.9 93.9179L260.427 7.38404C261.295 6.51591 261 5.5004 260.902 5.20557C260.787 4.91073 260.329 3.94424 259.1 3.87872C258.527 3.82958 257.937 4.05899 257.512 4.46848L182.122 79.8642C180.353 81.6496 177.732 82.1082 175.456 81.0599C173.179 80.028 171.836 77.7349 172.016 75.2288C172.131 73.8201 172.737 72.4769 173.736 71.4778L233.779 11.4299C234.811 10.4143 234.303 9.28411 234.123 8.9729C233.943 8.6453 233.255 7.62967 231.847 7.97364C231.47 8.07192 231.126 8.25216 230.88 8.53061L198.402 40.9952C196.273 43.1246 193.079 43.3702 190.655 41.552C188.247 39.7503 187.559 36.6381 189.001 33.9846C189.263 33.4768 189.607 33.0183 190.016 32.6088L204.331 18.2929C205.084 17.5394 206.313 17.5394 207.066 18.2929C207.819 19.0463 207.819 20.2748 207.066 21.0283L192.751 35.3442C192.604 35.4916 192.489 35.6553 192.391 35.8191C191.588 37.3097 192.735 38.2762 192.981 38.4564C193.21 38.6365 194.471 39.4555 195.667 38.2598L228.129 5.77886C228.899 5.00901 229.881 4.46848 230.929 4.22279C233.534 3.58398 236.187 4.73046 237.497 7.07276C238.824 9.41505 238.431 12.2651 236.514 14.1651L176.487 74.2132C176.143 74.5736 175.931 75.0322 175.882 75.5236C175.783 76.8503 176.766 77.4072 177.077 77.5382C177.372 77.6857 178.453 78.0624 179.386 77.1288L254.776 1.73304C255.972 0.537324 257.626 -0.101484 259.33 0.0131738C261.688 0.144211 263.686 1.61835 264.505 3.82961C265.357 6.04087 264.849 8.44875 263.162 10.1195L176.635 96.6534C176.16 97.1284 175.947 97.8164 176.062 98.4879C176.209 99.2578 176.75 99.8473 177.487 100.077C178.224 100.306 178.993 100.126 179.55 99.5689L274.578 4.5339C276.118 2.99421 278.378 2.42099 280.474 3.04342C282.505 3.64946 284.012 5.2382 284.536 7.28566C285.044 9.33312 284.471 11.4298 282.964 12.9203L181.401 114.507C180.811 115.097 180.631 115.981 180.959 116.751C181.237 117.406 181.778 117.849 182.466 117.98C183.153 118.111 183.825 117.914 184.333 117.423L290.826 10.9057C292.66 9.07114 295.559 8.64524 297.835 9.8901C299.49 10.791 300.603 12.3797 300.882 14.247C301.144 16.1143 300.554 17.949 299.195 19.2921L189.148 129.347C188.46 130.052 188.346 131.149 188.902 131.968C189.246 132.476 189.803 132.803 190.409 132.853C191.015 132.918 191.621 132.705 192.063 132.263L304.42 19.898C306.598 17.7195 310.021 17.5722 312.396 19.5378C313.673 20.6025 314.46 22.1585 314.541 23.8128C314.623 25.4836 313.985 27.1051 312.805 28.2845L199.335 141.779C198.942 142.173 198.713 142.68 198.713 143.237C198.713 143.778 198.942 144.302 199.335 144.695C200.122 145.498 201.432 145.498 202.234 144.695L315.721 31.2C316.9 30.0207 318.538 29.3983 320.192 29.4802C321.846 29.5621 323.419 30.332 324.467 31.626C326.432 34.001 326.269 37.4244 324.107 39.6029L211.75 151.951C211.308 152.377 211.095 152.983 211.161 153.606C211.226 154.212 211.537 154.768 212.061 155.112C212.864 155.653 213.961 155.555 214.666 154.867L324.712 44.7952C326.039 43.4684 327.906 42.8625 329.757 43.1246C331.624 43.403 333.213 44.5168 334.114 46.1711C335.359 48.4643 334.933 51.3472 333.098 53.1981L226.605 159.699C226.098 160.19 225.901 160.862 226.032 161.55C226.18 162.238 226.622 162.778 227.277 163.057C228.03 163.368 228.931 163.204 229.521 162.598L331.067 61.0439C332.558 59.5533 334.671 58.9636 336.718 59.4878C338.765 59.9956 340.338 61.5025 340.944 63.5336C341.582 65.6138 341.009 67.8742 339.47 69.4303L244.425 164.465C243.885 165.006 243.688 165.792 243.934 166.529C244.147 167.266 244.753 167.807 245.523 167.938C246.194 168.069 246.866 167.856 247.341 167.365L333.868 80.8305C335.539 79.1598 337.946 78.6521 340.174 79.4875C342.385 80.3229 343.843 82.3211 343.99 84.6797C344.088 86.3832 343.466 88.0376 342.254 89.2497L266.896 164.613C265.963 165.546 266.34 166.627 266.487 166.922C266.618 167.234 267.175 168.2 268.502 168.118C268.993 168.085 269.468 167.872 269.812 167.528L329.823 107.513C331.706 105.613 334.572 105.22 336.914 106.53C339.257 107.857 340.403 110.494 339.764 113.099C339.519 114.163 338.978 115.13 338.208 115.9L305.828 148.266C304.632 149.478 305.468 150.723 305.632 150.952C305.812 151.198 306.778 152.344 308.269 151.542C308.432 151.443 308.612 151.329 308.743 151.181L322.894 137.029C323.648 136.276 324.876 136.276 325.63 137.029C326.383 137.783 326.383 139.011 325.63 139.765L311.479 153.917C311.069 154.326 310.611 154.67 310.103 154.949C307.466 156.374 304.338 155.686 302.536 153.278C300.718 150.854 300.964 147.676 303.093 145.53L335.473 113.164C335.735 112.902 335.915 112.558 336.014 112.181C336.358 110.789 335.342 110.085 335.015 109.904C334.703 109.724 333.573 109.233 332.558 110.249L272.547 170.264C271.548 171.263 270.221 171.869 268.796 171.984C268.649 171.984 268.502 172 268.338 172Z" fill="#F97F9C" fill-opacity="0.4"/>
<path d="M440.338 172C438.029 172 435.948 170.673 434.966 168.544C433.917 166.267 434.376 163.646 436.161 161.877L511.535 86.498C511.944 86.0885 512.157 85.5151 512.125 84.9254C512.043 83.6806 511.093 83.222 510.798 83.1073C510.503 82.9927 509.488 82.6979 508.62 83.5824L422.076 170.1C420.7 171.492 418.751 172.098 416.835 171.754C414.64 171.345 412.888 169.789 412.232 167.676C411.577 165.563 412.134 163.286 413.69 161.714L508.718 66.6949C509.258 66.1543 509.455 65.3681 509.242 64.6474C508.931 63.6319 508.112 63.3207 507.768 63.2388C507.424 63.1569 506.556 63.0258 505.819 63.7793L404.256 165.35C402.553 167.053 400.014 167.561 397.77 166.627C395.952 165.858 394.626 164.236 394.249 162.303C393.856 160.354 394.462 158.356 395.87 156.947L502.363 50.4462C503.002 49.8074 503.149 48.8082 502.723 48.022C502.396 47.4323 501.839 47.0556 501.217 46.9573C500.561 46.8754 499.906 47.0721 499.448 47.5471L389.401 157.602C387.386 159.617 384.225 159.912 381.867 158.306C380.409 157.307 379.475 155.735 379.312 153.966C379.132 152.197 379.754 150.461 381.015 149.216L493.371 36.851C494.125 36.0976 494.174 34.9183 493.502 34.0829C493.109 33.6407 492.585 33.3786 491.995 33.3459C491.439 33.3131 490.865 33.5261 490.456 33.9519L376.97 147.43C374.66 149.74 370.91 149.74 368.584 147.43C367.47 146.3 366.864 144.81 366.864 143.237C366.864 141.648 367.47 140.158 368.584 139.044L482.07 25.549C482.496 25.1395 482.693 24.5827 482.66 24.0094C482.643 23.4198 482.381 22.8955 481.939 22.5188C481.104 21.8308 479.908 21.88 479.155 22.6335L366.799 134.998C365.554 136.259 363.818 136.882 362.049 136.718C360.28 136.538 358.691 135.604 357.709 134.13C356.12 131.788 356.398 128.626 358.413 126.612L468.46 16.5567C468.935 16.098 469.148 15.4592 469.049 14.804C468.951 14.1488 468.574 13.6083 468.001 13.297C467.198 12.8548 466.199 13.0023 465.561 13.6411L359.051 120.158C357.659 121.551 355.661 122.156 353.712 121.78C351.78 121.403 350.158 120.076 349.388 118.258C348.455 116.03 348.962 113.475 350.666 111.772L452.245 10.1849C452.982 9.44781 452.867 8.56341 452.786 8.23581C452.687 7.89184 452.392 7.05647 451.377 6.76164C450.623 6.53232 449.854 6.72882 449.313 7.26935L354.285 102.304C352.729 103.877 350.436 104.434 348.324 103.779C346.211 103.123 344.655 101.354 344.262 99.1758C343.901 97.2593 344.524 95.2938 345.9 93.9179L432.427 7.38404C433.295 6.51591 433 5.5004 432.902 5.20557C432.787 4.91073 432.329 3.94424 431.1 3.87872C430.527 3.82958 429.937 4.05899 429.512 4.46848L354.122 79.8642C352.353 81.6496 349.732 82.1082 347.456 81.0599C345.179 80.028 343.836 77.7349 344.016 75.2288C344.131 73.8201 344.737 72.4769 345.736 71.4778L405.779 11.4299C406.811 10.4143 406.303 9.28411 406.123 8.9729C405.943 8.6453 405.255 7.62967 403.847 7.97364C403.47 8.07192 403.126 8.25216 402.88 8.53061L370.402 40.9952C368.273 43.1246 365.079 43.3702 362.655 41.552C360.247 39.7503 359.559 36.6381 361.001 33.9846C361.263 33.4768 361.607 33.0183 362.016 32.6088L376.331 18.2929C377.084 17.5394 378.313 17.5394 379.066 18.2929C379.819 19.0463 379.819 20.2748 379.066 21.0283L364.751 35.3442C364.604 35.4916 364.489 35.6553 364.391 35.8191C363.588 37.3097 364.735 38.2762 364.981 38.4564C365.21 38.6365 366.471 39.4555 367.667 38.2598L400.129 5.77886C400.899 5.00901 401.881 4.46848 402.929 4.22279C405.534 3.58398 408.187 4.73046 409.497 7.07276C410.824 9.41505 410.431 12.2651 408.514 14.1651L348.487 74.2132C348.143 74.5736 347.931 75.0322 347.882 75.5236C347.783 76.8503 348.766 77.4072 349.077 77.5382C349.372 77.6857 350.453 78.0624 351.386 77.1288L426.776 1.73304C427.972 0.537324 429.626 -0.101484 431.33 0.0131738C433.688 0.144211 435.686 1.61835 436.505 3.82961C437.357 6.04087 436.849 8.44875 435.162 10.1195L348.635 96.6534C348.16 97.1284 347.947 97.8164 348.062 98.4879C348.209 99.2578 348.75 99.8473 349.487 100.077C350.224 100.306 350.993 100.126 351.55 99.5689L446.578 4.5339C448.118 2.99421 450.378 2.42099 452.474 3.04342C454.505 3.64946 456.012 5.2382 456.536 7.28566C457.044 9.33312 456.471 11.4298 454.964 12.9203L353.401 114.507C352.811 115.097 352.631 115.981 352.959 116.751C353.237 117.406 353.778 117.849 354.466 117.98C355.153 118.111 355.825 117.914 356.333 117.423L462.826 10.9057C464.66 9.07114 467.559 8.64524 469.835 9.8901C471.49 10.791 472.603 12.3797 472.882 14.247C473.144 16.1143 472.554 17.949 471.195 19.2921L361.148 129.347C360.46 130.052 360.346 131.149 360.902 131.968C361.246 132.476 361.803 132.803 362.409 132.853C363.015 132.918 363.621 132.705 364.063 132.263L476.42 19.898C478.598 17.7195 482.021 17.5722 484.396 19.5378C485.673 20.6025 486.46 22.1585 486.541 23.8128C486.623 25.4836 485.985 27.1051 484.805 28.2845L371.335 141.779C370.942 142.173 370.713 142.68 370.713 143.237C370.713 143.778 370.942 144.302 371.335 144.695C372.122 145.498 373.432 145.498 374.234 144.695L487.721 31.2C488.9 30.0207 490.538 29.3983 492.192 29.4802C493.846 29.5621 495.419 30.332 496.467 31.626C498.432 34.001 498.269 37.4244 496.107 39.6029L383.75 151.951C383.308 152.377 383.095 152.983 383.161 153.606C383.226 154.212 383.537 154.768 384.061 155.112C384.864 155.653 385.961 155.555 386.666 154.867L496.712 44.7952C498.039 43.4684 499.906 42.8625 501.757 43.1246C503.624 43.403 505.213 44.5168 506.114 46.1711C507.359 48.4643 506.933 51.3472 505.098 53.1981L398.605 159.699C398.098 160.19 397.901 160.862 398.032 161.55C398.18 162.238 398.622 162.778 399.277 163.057C400.03 163.368 400.931 163.204 401.521 162.598L503.067 61.0439C504.558 59.5533 506.671 58.9636 508.718 59.4878C510.765 59.9956 512.338 61.5025 512.944 63.5336C513.582 65.6138 513.009 67.8742 511.47 69.4303L416.425 164.465C415.885 165.006 415.688 165.792 415.934 166.529C416.147 167.266 416.753 167.807 417.523 167.938C418.194 168.069 418.866 167.856 419.341 167.365L505.868 80.8305C507.539 79.1598 509.946 78.6521 512.174 79.4875C514.385 80.3229 515.843 82.3211 515.99 84.6797C516.088 86.3832 515.466 88.0376 514.254 89.2497L438.896 164.613C437.963 165.546 438.34 166.627 438.487 166.922C438.618 167.234 439.175 168.2 440.502 168.118C440.993 168.085 441.468 167.872 441.812 167.528L501.823 107.513C503.706 105.613 506.572 105.22 508.914 106.53C511.257 107.857 512.403 110.494 511.764 113.099C511.519 114.163 510.978 115.13 510.208 115.9L477.828 148.266C476.632 149.478 477.468 150.723 477.632 150.952C477.812 151.198 478.778 152.344 480.269 151.542C480.432 151.443 480.612 151.329 480.743 151.181L494.894 137.029C495.648 136.276 496.876 136.276 497.63 137.029C498.383 137.783 498.383 139.011 497.63 139.765L483.479 153.917C483.069 154.326 482.611 154.67 482.103 154.949C479.466 156.374 476.338 155.686 474.536 153.278C472.718 150.854 472.964 147.676 475.093 145.53L507.473 113.164C507.735 112.902 507.915 112.558 508.014 112.181C508.358 110.789 507.342 110.085 507.015 109.904C506.703 109.724 505.573 109.233 504.558 110.249L444.547 170.264C443.548 171.263 442.221 171.869 440.796 171.984C440.649 171.984 440.502 172 440.338 172Z" fill="#8083CF" fill-opacity="0.4"/>
<path d="M612.338 172C610.029 172 607.948 170.673 606.966 168.544C605.917 166.267 606.376 163.646 608.161 161.877L683.535 86.498C683.944 86.0885 684.157 85.5151 684.125 84.9254C684.043 83.6806 683.093 83.222 682.798 83.1073C682.503 82.9927 681.488 82.6979 680.62 83.5824L594.076 170.1C592.7 171.492 590.751 172.098 588.835 171.754C586.64 171.345 584.888 169.789 584.232 167.676C583.577 165.563 584.134 163.286 585.69 161.714L680.718 66.6949C681.258 66.1543 681.455 65.3681 681.242 64.6474C680.931 63.6319 680.112 63.3207 679.768 63.2388C679.424 63.1569 678.556 63.0258 677.819 63.7793L576.256 165.35C574.553 167.053 572.014 167.561 569.77 166.627C567.952 165.858 566.626 164.236 566.249 162.303C565.856 160.354 566.462 158.356 567.87 156.947L674.363 50.4462C675.002 49.8074 675.149 48.8082 674.723 48.022C674.396 47.4323 673.839 47.0556 673.217 46.9573C672.561 46.8754 671.906 47.0721 671.448 47.5471L561.401 157.602C559.386 159.617 556.225 159.912 553.867 158.306C552.409 157.307 551.475 155.735 551.312 153.966C551.132 152.197 551.754 150.461 553.015 149.216L665.371 36.851C666.125 36.0976 666.174 34.9183 665.502 34.0829C665.109 33.6407 664.585 33.3786 663.995 33.3459C663.439 33.3131 662.865 33.5261 662.456 33.9519L548.97 147.43C546.66 149.74 542.91 149.74 540.584 147.43C539.47 146.3 538.864 144.81 538.864 143.237C538.864 141.648 539.47 140.158 540.584 139.044L654.07 25.549C654.496 25.1395 654.693 24.5827 654.66 24.0094C654.643 23.4198 654.381 22.8955 653.939 22.5188C653.104 21.8308 651.908 21.88 651.155 22.6335L538.799 134.998C537.554 136.259 535.818 136.882 534.049 136.718C532.28 136.538 530.691 135.604 529.709 134.13C528.12 131.788 528.398 128.626 530.413 126.612L640.46 16.5567C640.935 16.098 641.148 15.4592 641.049 14.804C640.951 14.1488 640.574 13.6083 640.001 13.297C639.198 12.8548 638.199 13.0023 637.561 13.6411L531.051 120.158C529.659 121.551 527.661 122.156 525.712 121.78C523.78 121.403 522.158 120.076 521.388 118.258C520.455 116.03 520.962 113.475 522.666 111.772L624.245 10.1849C624.982 9.44781 624.867 8.56341 624.786 8.23581C624.687 7.89184 624.392 7.05647 623.377 6.76164C622.623 6.53232 621.854 6.72882 621.313 7.26935L526.285 102.304C524.729 103.877 522.436 104.434 520.324 103.779C518.211 103.123 516.655 101.354 516.262 99.1758C515.901 97.2593 516.524 95.2938 517.9 93.9179L604.427 7.38404C605.295 6.51591 605 5.5004 604.902 5.20557C604.787 4.91073 604.329 3.94424 603.1 3.87872C602.527 3.82958 601.937 4.05899 601.512 4.46848L526.122 79.8642C524.353 81.6496 521.732 82.1082 519.456 81.0599C517.179 80.028 515.836 77.7349 516.016 75.2288C516.131 73.8201 516.737 72.4769 517.736 71.4778L577.779 11.4299C578.811 10.4143 578.303 9.28411 578.123 8.9729C577.943 8.6453 577.255 7.62967 575.847 7.97364C575.47 8.07192 575.126 8.25216 574.88 8.53061L542.402 40.9952C540.273 43.1246 537.079 43.3702 534.655 41.552C532.247 39.7503 531.559 36.6381 533.001 33.9846C533.263 33.4768 533.607 33.0183 534.016 32.6088L548.331 18.2929C549.084 17.5394 550.313 17.5394 551.066 18.2929C551.819 19.0463 551.819 20.2748 551.066 21.0283L536.751 35.3442C536.604 35.4916 536.489 35.6553 536.391 35.8191C535.588 37.3097 536.735 38.2762 536.981 38.4564C537.21 38.6365 538.471 39.4555 539.667 38.2598L572.129 5.77886C572.899 5.00901 573.881 4.46848 574.929 4.22279C577.534 3.58398 580.187 4.73046 581.497 7.07276C582.824 9.41505 582.431 12.2651 580.514 14.1651L520.487 74.2132C520.143 74.5736 519.931 75.0322 519.882 75.5236C519.783 76.8503 520.766 77.4072 521.077 77.5382C521.372 77.6857 522.453 78.0624 523.386 77.1288L598.776 1.73304C599.972 0.537324 601.626 -0.101484 603.33 0.0131738C605.688 0.144211 607.686 1.61835 608.505 3.82961C609.357 6.04087 608.849 8.44875 607.162 10.1195L520.635 96.6534C520.16 97.1284 519.947 97.8164 520.062 98.4879C520.209 99.2578 520.75 99.8473 521.487 100.077C522.224 100.306 522.993 100.126 523.55 99.5689L618.578 4.5339C620.118 2.99421 622.378 2.42099 624.474 3.04342C626.505 3.64946 628.012 5.2382 628.536 7.28566C629.044 9.33312 628.471 11.4298 626.964 12.9203L525.401 114.507C524.811 115.097 524.631 115.981 524.959 116.751C525.237 117.406 525.778 117.849 526.466 117.98C527.153 118.111 527.825 117.914 528.333 117.423L634.826 10.9057C636.66 9.07114 639.559 8.64524 641.835 9.8901C643.49 10.791 644.603 12.3797 644.882 14.247C645.144 16.1143 644.554 17.949 643.195 19.2921L533.148 129.347C532.46 130.052 532.346 131.149 532.902 131.968C533.246 132.476 533.803 132.803 534.409 132.853C535.015 132.918 535.621 132.705 536.063 132.263L648.42 19.898C650.598 17.7195 654.021 17.5722 656.396 19.5378C657.673 20.6025 658.46 22.1585 658.541 23.8128C658.623 25.4836 657.985 27.1051 656.805 28.2845L543.335 141.779C542.942 142.173 542.713 142.68 542.713 143.237C542.713 143.778 542.942 144.302 543.335 144.695C544.122 145.498 545.432 145.498 546.234 144.695L659.721 31.2C660.9 30.0207 662.538 29.3983 664.192 29.4802C665.846 29.5621 667.419 30.332 668.467 31.626C670.432 34.001 670.269 37.4244 668.107 39.6029L555.75 151.951C555.308 152.377 555.095 152.983 555.161 153.606C555.226 154.212 555.537 154.768 556.061 155.112C556.864 155.653 557.961 155.555 558.666 154.867L668.712 44.7952C670.039 43.4684 671.906 42.8625 673.757 43.1246C675.624 43.403 677.213 44.5168 678.114 46.1711C679.359 48.4643 678.933 51.3472 677.098 53.1981L570.605 159.699C570.098 160.19 569.901 160.862 570.032 161.55C570.18 162.238 570.622 162.778 571.277 163.057C572.03 163.368 572.931 163.204 573.521 162.598L675.067 61.0439C676.558 59.5533 678.671 58.9636 680.718 59.4878C682.765 59.9956 684.338 61.5025 684.944 63.5336C685.582 65.6138 685.009 67.8742 683.47 69.4303L588.425 164.465C587.885 165.006 587.688 165.792 587.934 166.529C588.147 167.266 588.753 167.807 589.523 167.938C590.194 168.069 590.866 167.856 591.341 167.365L677.868 80.8305C679.539 79.1598 681.946 78.6521 684.174 79.4875C686.385 80.3229 687.843 82.3211 687.99 84.6797C688.088 86.3832 687.466 88.0376 686.254 89.2497L610.896 164.613C609.963 165.546 610.34 166.627 610.487 166.922C610.618 167.234 611.175 168.2 612.502 168.118C612.993 168.085 613.468 167.872 613.812 167.528L673.823 107.513C675.706 105.613 678.572 105.22 680.914 106.53C683.257 107.857 684.403 110.494 683.764 113.099C683.519 114.163 682.978 115.13 682.208 115.9L649.828 148.266C648.632 149.478 649.468 150.723 649.632 150.952C649.812 151.198 650.778 152.344 652.269 151.542C652.432 151.443 652.612 151.329 652.743 151.181L666.894 137.029C667.648 136.276 668.876 136.276 669.63 137.029C670.383 137.783 670.383 139.011 669.63 139.765L655.479 153.917C655.069 154.326 654.611 154.67 654.103 154.949C651.466 156.374 648.338 155.686 646.536 153.278C644.718 150.854 644.964 147.676 647.093 145.53L679.473 113.164C679.735 112.902 679.915 112.558 680.014 112.181C680.358 110.789 679.342 110.085 679.015 109.904C678.703 109.724 677.573 109.233 676.558 110.249L616.547 170.264C615.548 171.263 614.221 171.869 612.796 171.984C612.649 171.984 612.502 172 612.338 172Z" fill="#F7C595" fill-opacity="0.4"/>
</g>
<defs>
<clipPath id="clip0_201_627">
<rect width="688" height="172" fill="white"/>
</clipPath>
</defs>
</svg>
