<?xml version="1.0" encoding="UTF-8" standalone="no"?>
<svg width="28px" height="19px" viewBox="0 0 28 19" version="1.1" xmlns="http://www.w3.org/2000/svg" xmlns:xlink="http://www.w3.org/1999/xlink" xmlns:sketch="http://www.bohemiancoding.com/sketch/ns">
    <title>Rectangle 83</title>
    <description>Created with Sketch (http://www.bohemiancoding.com/sketch)</description>
    <defs></defs>
    <g id="Page 1" stroke="none" stroke-width="1" fill="none" fill-rule="evenodd">
        <path d="M26.1951617,0 C26.3601215,0 26.5199007,0.0231779463 26.6716986,0.0665949765 C26.7193002,0.0802097304 26.766117,0.0958147559 26.8120624,0.113319419 C26.7659077,0.0957453024 26.7191936,0.0801793439 26.6716986,0.0665949765 L14,8.22248119 L1.32881212,0.0669237235 C1.48046116,0.0233152602 1.64007132,0 1.8048383,0 L26.1951617,0 Z M28,1.89125538 L28,17.1087446 C28,18.1466982 27.1919464,19 26.1951617,19 L1.8048383,19 C0.807788849,19 0,18.1532561 0,17.1087446 L0,1.89125538 C0,1.7461472 14,11.45 14,11.45 C14,11.45 28,1.74586115 28,1.89125538 Z M28,1.89125538" id="Rectangle 83" fill="#FFFFFF"></path>
    </g>
</svg>