<?xml version="1.0" encoding="UTF-8" standalone="no"?>
<svg width="36px" height="62px" viewBox="0 0 36 62" version="1.1" xmlns="http://www.w3.org/2000/svg" xmlns:xlink="http://www.w3.org/1999/xlink" xmlns:sketch="http://www.bohemiancoding.com/sketch/ns">
    <title>p</title>
    <description>Created with Sketch (http://www.bohemiancoding.com/sketch)</description>
    <defs></defs>
    <g id="Page 1" stroke="none" stroke-width="1" fill="none" fill-rule="evenodd">
        <path d="M35.645,19.205 C35.581,22.3 35.053,24.999 34.063,27.301 C33.073,29.603 31.792,31.512 30.217,33.028 C28.642,34.544 26.848,35.654 24.832,36.357 C22.818,37.061 20.754,37.391 18.643,37.347 L11.446,37.198 L10.94,61.616 L0.794,61.406 L2.056,0.531 L18.865,0.88 C20.81,0.92 22.806,1.249 24.851,1.864 C26.898,2.48 28.72,3.507 30.322,4.945 C31.922,6.384 33.226,8.261 34.238,10.575 C35.246,12.889 35.717,15.765 35.645,19.205 L35.645,19.205 Z M25.926,19.133 C25.994,15.881 25.27,13.496 23.752,11.981 C22.234,10.466 20.273,9.682 17.866,9.632 L12.019,9.511 L11.62,28.771 L17.467,28.892 C19.873,28.942 21.869,28.142 23.451,26.491 C25.033,24.839 25.859,22.387 25.926,19.133 L25.926,19.133 Z M25.926,19.133" id="Shape" fill="#FFFFFF"></path>
    </g>
</svg>