<?xml version="1.0" encoding="UTF-8" standalone="no"?>
<svg width="48px" height="63px" viewBox="0 0 48 63" version="1.1" xmlns="http://www.w3.org/2000/svg" xmlns:xlink="http://www.w3.org/1999/xlink" xmlns:sketch="http://www.bohemiancoding.com/sketch/ns">
    <g id="Page 1" stroke="none" stroke-width="1" fill="none" fill-rule="evenodd" sketch:type="MSPage">
        <path d="M-0.462630717,4.38695608 L18.4727766,0.796320225 C27.6534434,-0.944763557 34.5073639,3.31569194 36.27921,12.498595 C37.5017951,18.8378396 36.5747057,25.9218254 30.0850795,28.8370504 L30.1166592,28.9991937 C35.3092624,28.6044586 38.9770178,32.2051585 40.2616344,37.1007686 L42.6662022,46.9221808 C44.2327804,53.2804354 45.6121361,54.7028237 47.5373693,55.4330277 L38.8484433,57.0812984 C37.3844992,56.0950198 35.979203,51.8971851 35.2664043,49.083719 L33.0343969,40.1568906 C30.924197,32.3013263 26.40379,32.6524505 22.7157334,33.3524623 L12.960993,35.2020144 L17.9460725,61.0465413 L10.7312413,62.4141363 L-0.462630717,4.38695608 L-0.462630717,4.38695608 Z M11.4251966,29.4141363 L18.4428193,28.0870825 C22.636967,27.2934846 30.3005262,25.8445921 28.1707116,14.8352044 C27.0908212,9.25148004 22.621429,6.4579714 16.0066843,7.70928765 L7.53736928,9.31075292 L11.4251966,29.4141363 L11.4251966,29.4141363 Z M11.4251966,29.4141363" id="Shape" fill="#FFFFFF" sketch:type="MSShapeGroup" transform="translate(23.537369, 31.414136) rotate(-359.000000) translate(-23.537369, -31.414136) "></path>
    </g>
</svg>