<?xml version="1.0" encoding="UTF-8" standalone="no"?>
<svg width="41px" height="66px" viewBox="0 0 41 66" version="1.1" xmlns="http://www.w3.org/2000/svg" xmlns:xlink="http://www.w3.org/1999/xlink" xmlns:sketch="http://www.bohemiancoding.com/sketch/ns">
    <title>r-b</title>
    <description>Created with Sketch (http://www.bohemiancoding.com/sketch)</description>
    <defs></defs>
    <g id="Page 1" stroke="none" stroke-width="1" fill="none" fill-rule="evenodd">
        <path d="M25.312,64.408 L19.031,37.49 L13.31,36.8 L10.201,62.585 L0.297,61.391 L7.59,0.941 L24.836,3.022 C27.34,3.324 29.606,3.93 31.633,4.838 C33.66,5.747 35.342,7.004 36.68,8.609 C38.016,10.214 38.981,12.15 39.575,14.415 C40.167,16.682 40.282,19.323 39.917,22.339 C39.636,24.673 39.089,26.7 38.274,28.421 C37.46,30.142 36.522,31.574 35.46,32.716 C34.399,33.859 33.267,34.747 32.064,35.381 C30.863,36.016 29.703,36.41 28.587,36.564 L36.071,65.707 L25.312,64.408 L25.312,64.408 Z M29.779,21.635 C30,19.814 29.925,18.274 29.556,17.017 C29.189,15.76 28.632,14.74 27.89,13.957 C27.148,13.174 26.281,12.58 25.29,12.171 C24.3,11.763 23.292,11.497 22.269,11.373 L16.462,10.673 L14.216,29.286 L20.023,29.987 C22.527,30.289 24.685,29.756 26.496,28.386 C28.309,27.017 29.402,24.766 29.779,21.635 L29.779,21.635 Z M29.779,21.635" id="Shape" fill="#FFFFFF"></path>
    </g>
</svg>