<?xml version="1.0" encoding="UTF-8" standalone="no"?>
<svg width="41px" height="65px" viewBox="0 0 41 65" version="1.1" xmlns="http://www.w3.org/2000/svg" xmlns:xlink="http://www.w3.org/1999/xlink" xmlns:sketch="http://www.bohemiancoding.com/sketch/ns">
    <g id="Page 1" stroke="none" stroke-width="1" fill="none" fill-rule="evenodd" sketch:type="MSPage">
        <path d="M7.74092976,0.344174374 L26.9702401,2.66965359 C36.2937138,3.79781148 41.5383802,10.0111836 40.4019792,19.4242155 C39.6168088,25.9210443 36.5441073,32.4813674 29.4333865,33.3113288 L29.4129925,33.4780014 C34.5035706,34.6855272 36.9032689,39.2865972 36.6222844,44.4080939 L35.8937641,54.6318121 C35.4326323,61.2533619 36.3129748,63.0504777 37.9309017,64.3441744 L29.107082,63.2772431 C28.009203,61.8769668 27.9593509,57.3915471 28.1451632,54.4549351 L28.7626493,45.1484829 C29.1659981,36.9146311 24.7302951,35.8703764 20.9857234,35.4179794 L11.0798867,34.2195243 L7.88028901,60.7102588 L0.555430909,59.8247399 L7.74092976,0.344174374 L7.74092976,0.344174374 Z M11.5554309,28.2024735 L18.812404,29.0721796 C23.149331,29.5926513 31.0750082,30.5423432 32.4657767,19.1212556 C33.1708112,13.3273462 29.6944577,9.21539419 22.8541475,8.39525691 L14.0951444,7.34417437 L11.5554309,28.2024735 L11.5554309,28.2024735 Z M11.5554309,28.2024735" id="Shape" fill="#FFFFFF" sketch:type="MSShapeGroup" transform="translate(20.555431, 32.344174) rotate(-359.000000) translate(-20.555431, -32.344174) "></path>
    </g>
</svg>