<svg width="480" height="620" viewBox="0 0 480 620" fill="none" xmlns="http://www.w3.org/2000/svg">
<circle cx="360" cy="560" r="60" fill="#6F7DFA"/>
<path d="M0 320H120V440H0V320Z" fill="#95F9F9"/>
<path d="M0 320H120V440H0V320Z" fill="#95F9F9"/>
<rect x="120" y="320" width="120" height="120" fill="#0D25F9"/>
<mask id="mask0" mask-type="alpha" maskUnits="userSpaceOnUse" x="120" y="320" width="240" height="240">
<rect x="120" y="320" width="240" height="240" fill="#C4C4C4"/>
</mask>
<g mask="url(#mask0)">
<path fill-rule="evenodd" clip-rule="evenodd" d="M148.629 320H136L-104 560H-91.3707L148.629 320ZM173.932 320H161.303L-78.6973 560H-66.0681L173.932 320ZM189.718 320H202.348L-37.6523 560H-50.2815L189.718 320ZM230.764 320H218.134L-21.8657 560H-9.23643L230.764 320ZM246.55 320H259.179L19.1794 560H6.55014L246.55 320ZM287.595 320H274.966L34.9659 560H47.5952L287.595 320ZM303.382 320H316.011L76.011 560H63.3818L303.382 320ZM344.427 320H331.798L91.7976 560H104.427L344.427 320ZM360.213 320H372.843L132.843 560H120.213L360.213 320ZM401.258 320H388.629L148.629 560H161.258L401.258 320ZM417.045 320H429.674L189.674 560H177.045L417.045 320ZM458.09 320H445.461L205.461 560H218.09L458.09 320ZM473.877 320H486.506L246.506 560H233.877L473.877 320ZM514.922 320H502.293L262.293 560H274.922L514.922 320ZM530.708 320H543.338L303.338 560H290.708L530.708 320ZM571.753 320H559.124L319.124 560H331.753L571.753 320ZM587.54 320H600.169L360.169 560H347.54L587.54 320ZM628.585 320H615.956L375.956 560H388.585L628.585 320Z" fill="#FA6FC2"/>
</g>
<path fill-rule="evenodd" clip-rule="evenodd" d="M120 326.303L126.303 320H138.932L120 338.932V326.303ZM120 367.348L120 354.718L154.718 320H167.348L120 367.348ZM120 395.764L120 383.134L183.134 320H195.764L120 395.764ZM120 424.179L120 411.55L211.55 320H224.179L120 424.179ZM132.595 440H120L120 439.966L239.966 320H240V332.595L132.595 440ZM161.011 440H148.382L240 348.382V361.011L161.011 440ZM189.427 440H176.798L240 376.798V389.427L189.427 440ZM217.843 440H205.213L240 405.213V417.843L217.843 440ZM240 433.629V440H233.629L240 433.629Z" fill="#FBB5B5"/>
<rect x="240" y="80" width="120" height="120" fill="#6F7DFA"/>
<rect x="300" y="140" width="120" height="120" rx="60" fill="#95F9F9"/>
<path fill-rule="evenodd" clip-rule="evenodd" d="M360 140V200H300C300 166.863 326.863 140 360 140Z" fill="#FBB5B5"/>
<rect x="44" y="426" width="28" height="28" rx="14" fill="#6F7DFA"/>
<path fill-rule="evenodd" clip-rule="evenodd" d="M96 440H44C44 425.641 55.6406 414 70 414C84.3594 414 96 425.641 96 440Z" fill="#FBB5B5"/>
<path d="M412.502 114.924L454.924 72.5019C460.523 77.9518 464 85.5699 464 94C464 110.569 450.569 124 434 124C425.57 124 417.952 120.523 412.502 114.924Z" fill="#95F9F9"/>
<path d="M434 64C417.431 64 404 77.4315 404 94C404 102.138 407.241 109.52 412.502 114.924L454.924 72.5019C449.52 67.2407 442.138 64 434 64Z" fill="#FA6FC2"/>
<rect x="345" width="28" height="28" rx="14" fill="#FBB5B5"/>
<path fill-rule="evenodd" clip-rule="evenodd" d="M240 200H120V320H240V200ZM154 224C148.477 224 144 228.477 144 234C144 239.523 148.477 244 154 244C159.523 244 164 239.523 164 234C164 228.477 159.523 224 154 224Z" fill="#FA6FC2"/>
<path opacity="0.8" fill-rule="evenodd" clip-rule="evenodd" d="M362.85 200C362.106 201.032 361.182 202.148 360 203.348V201.488C360.468 200.972 360.888 200.474 361.266 200H362.85ZM367.104 200C366.174 201.698 364.836 203.57 362.652 205.754C361.716 206.69 360.834 207.47 360 208.13V206.39C360.54 205.916 361.104 205.4 361.698 204.8C363.51 203 364.692 201.44 365.556 200H367.104ZM365.538 207.926C368.682 204.782 370.074 202.298 371.046 200H369.498C368.574 202.04 367.266 204.188 364.536 206.918C362.838 208.622 361.362 209.768 360 210.614V212.258C361.644 211.328 363.45 210.014 365.538 207.926ZM374.802 200C374.785 200.038 374.769 200.079 374.753 200.12L374.753 200.12L374.753 200.12C374.742 200.15 374.731 200.18 374.718 200.21L374.714 200.221C373.611 203.086 372.469 206.053 368.43 210.098C365.058 213.464 362.436 214.82 360 215.816V214.19C362.184 213.26 364.446 211.964 367.374 209.036C371.052 205.358 372.15 202.73 373.206 200H374.802ZM377.639 202.31L377.639 202.309C377.937 201.538 378.231 200.778 378.582 200H376.878C376.62 200.612 376.386 201.212 376.158 201.806L376.15 201.827C375.055 204.663 374.019 207.347 370.212 211.154C366.39 214.976 363.702 216.008 360.858 217.1L360.858 217.1C360.576 217.208 360.289 217.322 360.002 217.435L360 217.436V219.122C360.316 218.994 360.632 218.871 360.947 218.749L360.948 218.749L360.948 218.749L360.948 218.749L360.948 218.749L360.948 218.749L360.948 218.749L360.948 218.749L360.948 218.749L360.949 218.748L360.949 218.748L360.949 218.748L360.949 218.748L360.949 218.748L360.949 218.748L360.949 218.748L360.949 218.748L360.95 218.748C361.107 218.687 361.265 218.626 361.422 218.564C364.296 217.46 367.26 216.314 371.316 212.264C375.367 208.213 376.509 205.246 377.612 202.381L377.616 202.37L377.639 202.31ZM382.602 200C381.668 201.541 381.121 202.956 380.561 204.401L380.514 204.524L380.502 204.556C379.395 207.42 378.249 210.389 374.202 214.43C370.181 218.463 367.221 219.612 364.37 220.719L364.296 220.748C362.874 221.288 361.5 221.822 360 222.686V220.82C361.256 220.16 362.429 219.707 363.583 219.26L363.708 219.212C366.552 218.12 369.234 217.088 373.05 213.272C376.86 209.462 377.892 206.78 378.984 203.936C379.47 202.67 379.968 201.386 380.718 200H382.602ZM383.409 206.675C384.23 204.542 385.017 202.499 386.982 200H384.864C383.286 202.25 382.542 204.176 381.816 206.066C380.724 208.904 379.692 211.586 375.882 215.39C372.078 219.2 369.396 220.232 366.558 221.324L366.558 221.324L366.558 221.324C364.536 222.098 362.466 222.902 360 224.714V226.88C362.724 224.629 364.893 223.794 367.161 222.92L367.176 222.914C370.05 221.81 373.026 220.664 377.094 216.602C381.156 212.534 382.302 209.558 383.406 206.684L383.409 206.675ZM391.77 200C388.339 203.55 387.349 206.124 386.305 208.834L386.304 208.838L386.3 208.849C385.191 211.726 384.043 214.705 379.98 218.768C375.927 222.833 372.952 223.98 370.082 225.086L370.05 225.098C367.218 226.184 364.542 227.216 360.738 231.014C360.48 231.272 360.234 231.524 360 231.776V229.25C363.771 225.616 366.604 224.517 369.336 223.458L369.408 223.43C372.24 222.35 374.916 221.312 378.72 217.508C382.518 213.71 383.547 211.042 384.637 208.215L384.642 208.202C385.59 205.736 386.562 203.21 389.358 200H391.77ZM395.112 201.698C395.76 201.056 396.366 200.498 396.954 200H394.2C394.068 200.12 393.937 200.251 393.805 200.383L393.804 200.384C389.737 204.451 388.582 207.442 387.474 210.311L387.468 210.326C386.382 213.158 385.356 215.828 381.558 219.626C377.775 223.409 375.111 224.442 372.291 225.535L372.258 225.548C369.372 226.652 366.39 227.798 362.316 231.872C361.41 232.778 360.648 233.63 360 234.44V237.62C360.84 236.282 361.962 234.848 363.624 233.186C367.409 229.401 370.08 228.369 372.896 227.281L372.924 227.27L372.928 227.269C375.813 226.159 378.794 225.012 382.872 220.94C386.937 216.875 388.087 213.891 389.195 211.017L389.202 210.998C390.288 208.166 391.32 205.502 395.112 201.698ZM402.846 200C401.4 200.852 399.834 202.034 398.004 203.864C394.212 207.656 393.186 210.326 392.1 213.152L392.1 213.152C390.99 216.038 389.838 219.026 385.758 223.106C381.678 227.186 378.69 228.338 375.798 229.448L375.791 229.451C372.973 230.536 370.305 231.563 366.516 235.352C362.73 239.144 361.701 241.806 360.611 244.627L360.606 244.64C360.414 245.15 360.216 245.66 360 246.182V241.082C360.966 239.012 362.388 236.75 365.154 233.99C369.218 229.926 372.199 228.773 375.075 227.661L375.108 227.648L375.109 227.648C377.935 226.562 380.605 225.535 384.396 221.75C388.184 217.956 389.212 215.287 390.297 212.47L390.3 212.462C391.41 209.57 392.562 206.582 396.642 202.502C397.638 201.506 398.568 200.684 399.45 200H402.846ZM410.352 200.069C410.414 200.047 410.475 200.024 410.538 200H405.51C403.728 200.954 401.778 202.322 399.474 204.62C395.396 208.704 394.243 211.698 393.127 214.595L393.126 214.598C392.046 217.412 391.02 220.076 387.234 223.862C383.452 227.644 380.784 228.672 377.967 229.757L377.958 229.76C375.066 230.87 372.072 232.022 367.986 236.108C363.911 240.189 362.76 243.171 361.647 246.056L361.638 246.08C361.164 247.322 360.696 248.528 360 249.824V253.526C361.896 250.988 362.712 248.87 363.504 246.8C364.59 243.974 365.616 241.31 369.402 237.524C373.188 233.738 375.852 232.712 378.678 231.626C381.57 230.516 384.558 229.364 388.65 225.278C392.721 221.207 393.877 218.212 394.99 215.326L394.998 215.306C396.078 212.486 397.104 209.822 400.89 206.036C404.672 202.254 407.341 201.226 410.158 200.141L410.166 200.138C410.229 200.114 410.291 200.092 410.352 200.069ZM418.014 200C416.234 201.09 414.643 201.701 413.077 202.302L413.04 202.316L413.011 202.327C410.208 203.409 407.549 204.435 403.782 208.202C400.009 211.975 398.98 214.642 397.896 217.45L397.89 217.466C396.78 220.358 395.628 223.352 391.536 227.45C387.446 231.535 384.452 232.687 381.555 233.803L381.552 233.804L381.539 233.809C378.724 234.893 376.068 235.916 372.288 239.69C368.514 243.47 367.491 246.126 366.407 248.941L366.402 248.954L366.398 248.965C365.283 251.86 364.129 254.857 360.042 258.938L360 258.98V255.956C362.643 252.954 363.532 250.645 364.467 248.219L364.47 248.21C365.58 245.312 366.732 242.318 370.824 238.226C374.915 234.135 377.908 232.983 380.805 231.867L380.808 231.866C383.628 230.786 386.286 229.76 390.072 225.98C393.839 222.213 394.865 219.554 395.947 216.751L395.958 216.722L395.967 216.698L395.967 216.698C397.08 213.808 398.231 210.819 402.312 206.738C406.385 202.671 409.376 201.511 412.255 200.394L412.296 200.378L413.286 200H418.014ZM415.928 204.497C418.325 203.568 420.789 202.613 423.888 200H420.33C418.473 201.204 416.843 201.834 415.154 202.487L415.146 202.49L415.135 202.494C412.24 203.609 409.243 204.763 405.15 208.856C401.057 212.949 399.903 215.946 398.788 218.84L398.784 218.852C397.704 221.666 396.684 224.324 392.91 228.098C389.13 231.872 386.472 232.898 383.658 233.978L383.625 233.991C380.737 235.109 377.745 236.267 373.662 240.35C369.573 244.439 368.417 247.434 367.304 250.32L367.296 250.34C366.216 253.154 365.19 255.812 361.416 259.586C360.924 260.078 360.456 260.522 360 260.924V263.702C360.918 263 361.89 262.148 362.934 261.104C367.032 257.006 368.184 254.012 369.3 251.108C370.38 248.3 371.406 245.636 375.18 241.862C378.954 238.088 381.612 237.062 384.426 235.982C387.33 234.866 390.324 233.714 394.422 229.616C398.515 225.523 399.669 222.526 400.784 219.631L400.788 219.62L400.796 219.599C401.879 216.793 402.903 214.139 406.668 210.374C410.442 206.6 413.1 205.574 415.92 204.5L415.928 204.497ZM428.804 200.298L428.803 200.299L428.802 200.3C424.699 204.397 421.7 205.549 418.797 206.665L418.794 206.666L418.781 206.671C415.972 207.755 413.322 208.778 409.554 212.54C405.786 216.314 404.766 218.966 403.686 221.774L403.686 221.774C402.57 224.678 401.412 227.684 397.314 231.782C393.222 235.875 390.227 237.032 387.33 238.151L387.306 238.16C384.492 239.24 381.84 240.26 378.066 244.034C374.298 247.802 373.278 250.454 372.198 253.268C371.082 256.172 369.924 259.172 365.82 263.276C363.618 265.478 361.728 266.834 360 267.782V265.208C361.284 264.386 362.67 263.3 364.254 261.704C368.009 257.949 369.035 255.296 370.117 252.499L370.128 252.47L370.129 252.467C371.245 249.564 372.398 246.565 376.5 242.462C380.602 238.36 383.601 237.207 386.504 236.091L386.508 236.09L386.521 236.085L386.521 236.085C389.33 235.001 391.98 233.978 395.742 230.216C399.512 226.452 400.534 223.795 401.613 220.99L401.616 220.982L401.617 220.978C402.733 218.076 403.886 215.076 407.988 210.974C412.09 206.871 415.09 205.719 417.993 204.603L417.996 204.602L418.032 204.588C420.485 203.639 422.823 202.735 425.886 200H429.096C429.001 200.101 428.906 200.196 428.805 200.297L428.804 200.298L428.804 200.298ZM431.694 202.46C432.564 201.59 433.296 200.774 433.926 200H430.896C430.638 200.27 430.362 200.552 430.074 200.84C426.306 204.608 423.654 205.628 420.846 206.708C417.942 207.824 414.936 208.982 410.826 213.098C406.724 217.195 405.568 220.191 404.448 223.096L404.442 223.112L404.437 223.125L404.437 223.125C403.359 225.928 402.342 228.572 398.58 232.334C394.836 236.084 392.192 237.106 389.399 238.186L389.358 238.202C386.448 239.318 383.448 240.47 379.338 244.58C375.231 248.687 374.072 251.697 372.957 254.593L372.954 254.6C371.874 257.408 370.854 260.06 367.092 263.822C364.284 266.63 362.094 267.914 360 268.826V271.316C362.514 270.302 365.214 268.94 368.712 265.448C372.816 261.332 373.974 258.332 375.09 255.422L375.09 255.421C376.17 252.614 377.19 249.962 380.958 246.2C384.72 242.438 387.372 241.418 390.18 240.338L390.191 240.334C393.092 239.213 396.095 238.053 400.2 233.954C404.291 229.869 405.451 226.866 406.569 223.974L406.584 223.934C407.664 221.126 408.684 218.474 412.446 214.712C416.208 210.95 418.86 209.924 421.668 208.85L421.672 208.849C424.58 207.727 427.586 206.568 431.694 202.46ZM438 200V200.588C437.148 201.824 436.056 203.156 434.58 204.632C430.464 208.748 427.458 209.906 424.548 211.022C421.74 212.102 419.094 213.122 415.332 216.878C411.576 220.64 410.556 223.286 409.482 226.088L409.478 226.099C408.357 229.006 407.197 232.015 403.092 236.12C398.976 240.236 395.964 241.4 393.054 242.51C390.252 243.59 387.606 244.61 383.844 248.372C380.088 252.128 379.068 254.774 377.988 257.582C376.872 260.498 375.714 263.498 371.598 267.614C367.493 271.719 364.484 272.879 361.577 274L361.566 274.004C361.038 274.202 360.522 274.406 360 274.622V272.072C360.08 272.042 360.16 272.011 360.24 271.981C360.4 271.919 360.56 271.858 360.72 271.802L360.76 271.786C363.547 270.706 366.186 269.684 369.93 265.94C373.682 262.187 374.704 259.537 375.783 256.738L375.786 256.73C376.902 253.82 378.06 250.814 382.176 246.698C386.286 242.582 389.298 241.424 392.208 240.308L392.216 240.305C395.015 239.226 397.666 238.204 401.418 234.452C405.174 230.69 406.194 228.05 407.274 225.248C408.39 222.332 409.548 219.32 413.664 215.21C417.774 211.1 420.786 209.936 423.696 208.82L423.704 208.817C426.503 207.738 429.154 206.716 432.906 202.958C433.98 201.89 434.826 200.912 435.516 200H438ZM438 206.252V202.562C437.382 203.348 436.638 204.182 435.744 205.076C431.994 208.832 429.348 209.852 426.546 210.926L426.543 210.927C423.628 212.049 420.616 213.208 416.502 217.328C412.38 221.45 411.222 224.456 410.1 227.372C409.026 230.168 408.006 232.814 404.256 236.57C400.5 240.32 397.86 241.34 395.058 242.414C392.142 243.536 389.13 244.7 385.008 248.816C380.901 252.923 379.739 255.936 378.62 258.84L378.612 258.86C377.538 261.662 376.518 264.308 372.762 268.058C369.025 271.801 366.385 272.821 363.6 273.897L363.57 273.908L363.551 273.915C362.405 274.357 361.241 274.805 360 275.438V278H360.396C361.8 277.202 363.102 276.698 364.44 276.182L364.443 276.181C367.358 275.059 370.369 273.901 374.49 269.78C378.604 265.666 379.763 262.654 380.885 259.74L380.886 259.736C381.96 256.934 382.98 254.3 386.736 250.538C390.476 246.792 393.118 245.773 395.912 244.696L395.934 244.688L395.945 244.684C398.852 243.563 401.861 242.403 405.978 238.298C410.094 234.17 411.258 231.158 412.374 228.248L412.388 228.211C413.463 225.428 414.485 222.783 418.224 219.05C421.974 215.3 424.62 214.28 427.422 213.2L427.441 213.193C430.345 212.073 433.359 210.911 437.466 206.798C437.651 206.613 437.823 206.435 437.996 206.256L437.996 206.256L437.997 206.256L437.997 206.255L437.997 206.255L437.998 206.255L438 206.252ZM438 207.764V211.112C435.024 213.554 432.63 214.478 430.296 215.378C427.5 216.452 424.86 217.472 421.11 221.216C417.366 224.966 416.346 227.606 415.272 230.402L415.268 230.413C414.147 233.326 412.987 236.341 408.864 240.458C404.742 244.586 401.724 245.75 398.808 246.866C396.012 247.94 393.372 248.96 389.622 252.71C385.879 256.446 384.862 259.089 383.79 261.873L383.784 261.89C382.662 264.812 381.498 267.824 377.376 271.952C373.686 275.648 370.878 276.956 368.238 278H362.016C363.524 277.139 364.91 276.601 366.264 276.075L366.42 276.014L366.42 276.014C369.216 274.94 371.856 273.926 375.6 270.176C379.341 266.435 380.359 263.799 381.436 261.01L381.444 260.99L381.448 260.979C382.569 258.066 383.729 255.051 387.846 250.934C391.969 246.812 394.984 245.651 397.896 244.53L397.908 244.526C400.704 243.452 403.344 242.432 407.094 238.688C410.838 234.938 411.858 232.298 412.932 229.502L412.936 229.49C414.057 226.578 415.217 223.563 419.334 219.452C423.457 215.323 426.472 214.163 429.385 213.042L429.396 213.038L429.455 213.015C432.08 211.998 434.582 211.027 438 207.764ZM438 215.33V212.252C435.914 213.73 434.129 214.421 432.282 215.136L432.246 215.15L432.243 215.151C429.322 216.273 426.305 217.431 422.172 221.564C418.044 225.698 416.88 228.71 415.758 231.632L415.755 231.64C414.682 234.427 413.666 237.066 409.932 240.8C406.201 244.537 403.566 245.551 400.787 246.621L400.758 246.632L400.734 246.641C397.819 247.766 394.807 248.929 390.684 253.052C386.556 257.18 385.392 260.198 384.27 263.12C383.196 265.916 382.182 268.55 378.438 272.3C374.844 275.888 372.276 276.968 369.606 278H375.534C376.962 277.088 378.51 275.87 380.262 274.118C384.385 270.001 385.548 266.989 386.673 264.074L386.682 264.05C387.756 261.254 388.77 258.62 392.508 254.876C396.252 251.132 398.892 250.118 401.682 249.05L401.694 249.045C404.613 247.919 407.634 246.752 411.756 242.63C415.884 238.502 417.048 235.478 418.17 232.556L418.17 232.556C419.244 229.766 420.258 227.132 424.002 223.388C427.74 219.65 430.38 218.63 433.17 217.556C434.706 216.968 436.266 216.368 438 215.33ZM438 216.038V218.954C437.34 219.236 436.692 219.488 436.05 219.734L436.049 219.734C433.26 220.808 430.626 221.822 426.888 225.554C423.15 229.298 422.136 231.926 421.068 234.716L421.063 234.728C419.937 237.646 418.771 240.667 414.642 244.802C410.508 248.936 407.484 250.1 404.562 251.222L404.52 251.238C401.746 252.312 399.119 253.329 395.4 257.048C391.662 260.78 390.648 263.414 389.574 266.203L389.574 266.204C388.452 269.132 387.288 272.15 383.154 276.29C382.518 276.926 381.912 277.49 381.324 278H376.884C378.21 277.166 379.638 276.05 381.276 274.412C385.014 270.674 386.028 268.04 387.096 265.25L387.101 265.238C388.227 262.32 389.394 259.298 393.522 255.17C397.655 251.031 400.678 249.873 403.606 248.751L403.608 248.75L403.629 248.742C406.411 247.665 409.041 246.647 412.764 242.918C416.502 239.186 417.516 236.552 418.59 233.762L418.59 233.762C419.712 230.84 420.876 227.816 425.01 223.682C429.144 219.548 432.174 218.378 435.096 217.256C436.068 216.884 437.016 216.518 438 216.038ZM438 222.266V219.35C437.983 219.35 437.966 219.356 437.949 219.361L437.946 219.362L437.934 219.366C435.01 220.493 431.982 221.659 427.848 225.8C423.708 229.94 422.544 232.964 421.416 235.898C420.348 238.676 419.334 241.31 415.602 245.036C411.87 248.768 409.242 249.782 406.458 250.856L406.458 250.856C403.53 251.978 400.5 253.148 396.36 257.288C392.221 261.427 391.057 264.45 389.929 267.377L389.928 267.38L389.923 267.393C388.851 270.178 387.84 272.804 384.114 276.53C383.568 277.076 383.046 277.562 382.548 278H386.496C390.266 274.092 391.384 271.19 392.468 268.374L392.472 268.364L392.474 268.36C393.547 265.571 394.556 262.95 398.286 259.214C402.018 255.482 404.652 254.468 407.436 253.4L407.448 253.395C410.372 252.269 413.4 251.102 417.534 246.968C421.674 242.828 422.838 239.798 423.96 236.87C425.034 234.086 426.048 231.458 429.774 227.726C433.092 224.408 435.54 223.238 438 222.266ZM438 222.626V225.764C436.416 226.628 434.706 227.858 432.666 229.898C428.957 233.602 427.941 236.229 426.872 238.993L426.858 239.03L426.854 239.041C425.727 241.966 424.561 244.993 420.42 249.134C416.274 253.28 413.244 254.45 410.31 255.578L410.282 255.589C407.514 256.659 404.891 257.673 401.178 261.386C397.452 265.112 396.438 267.734 395.37 270.518L395.369 270.52C394.493 272.799 393.599 275.127 391.308 278H387.588C390.798 274.61 391.752 272.126 392.754 269.51C393.882 266.582 395.052 263.552 399.198 259.406C403.344 255.26 406.374 254.09 409.308 252.962C412.086 251.9 414.714 250.88 418.44 247.154C422.16 243.434 423.171 240.814 424.243 238.034L424.248 238.022L424.262 237.987C425.385 235.076 426.557 232.041 430.686 227.918C433.542 225.056 435.87 223.616 438 222.626ZM438 229.862V226.316C436.638 227.204 435.168 228.386 433.524 230.03C429.372 234.182 428.202 237.218 427.074 240.152C426.006 242.93 424.998 245.552 421.278 249.272C417.558 252.998 414.936 254.006 412.158 255.074C409.218 256.202 406.188 257.372 402.036 261.524C397.884 265.676 396.714 268.706 395.586 271.64L395.586 271.641C394.806 273.675 394.056 275.63 392.244 278H395.742C396.966 276.062 397.626 274.352 398.268 272.672L398.274 272.656C399.34 269.89 400.351 267.265 404.064 263.552C407.781 259.835 410.407 258.826 413.182 257.759L413.19 257.756L413.223 257.743C416.147 256.613 419.176 255.442 423.312 251.306C427.458 247.154 428.628 244.118 429.756 241.184L429.756 241.183C430.824 238.406 431.832 235.784 435.552 232.064C436.422 231.2 437.232 230.474 438 229.862ZM438 230.606V234.686C434.653 238.159 433.684 240.669 432.661 243.321L432.654 243.338L432.642 243.37C431.512 246.3 430.341 249.335 426.198 253.472C422.04 257.63 419.004 258.8 416.064 259.928L416.014 259.947C413.261 261.014 410.648 262.026 406.956 265.724C403.236 269.438 402.228 272.054 401.166 274.832L401.1 275.002C400.726 275.973 400.345 276.963 399.84 278H396.504C397.357 276.527 397.872 275.185 398.402 273.802L398.412 273.776L398.414 273.772C399.547 270.833 400.718 267.798 404.868 263.648C409.02 259.49 412.059 258.318 414.995 257.185L415.008 257.18L415.016 257.177C417.785 256.11 420.406 255.1 424.116 251.39C427.826 247.679 428.836 245.059 429.903 242.29L429.906 242.282C431.034 239.348 432.204 236.306 436.356 232.148C436.926 231.578 437.472 231.068 438 230.606ZM438 240.41C436.806 242.228 436.188 243.836 435.552 245.498L435.548 245.509C434.415 248.446 433.243 251.485 429.084 255.65C425.832 258.902 423.264 260.318 420.894 261.326C423.588 260.288 426.168 259.25 429.792 255.626C433.477 251.94 434.487 249.331 435.55 246.585L435.564 246.548C436.194 244.904 436.836 243.236 438 241.358V248.798C436.962 251.402 435.606 254.18 431.976 257.81C429.3 260.486 427.092 261.92 425.076 262.91C427.314 261.986 429.606 260.762 432.624 257.75C435.876 254.498 437.046 252.086 438 249.674V256.352C437.19 257.468 436.176 258.668 434.862 259.982C432.594 262.25 430.662 263.63 428.892 264.602C430.836 263.708 432.882 262.448 435.462 259.862C436.5 258.824 437.322 257.876 438 256.982V261.902L437.928 261.974C437.871 262.031 437.813 262.089 437.754 262.148C435.858 264.05 434.196 265.322 432.666 266.258C434.256 265.43 435.96 264.266 438 262.274V266.702C437.478 267.122 436.974 267.5 436.482 267.824C436.968 267.536 437.478 267.2 438 266.816V278H425.208C426.126 277.112 426.984 276.374 427.8 275.75C426.948 276.338 426.042 277.064 425.058 278H420.348C420.81 277.466 421.326 276.914 421.896 276.35C423.414 274.826 424.788 273.704 426.06 272.834C424.662 273.668 423.15 274.808 421.398 276.566C420.906 277.058 420.456 277.538 420.054 278H415.824C416.652 276.836 417.696 275.588 419.058 274.226C420.954 272.33 422.622 271.052 424.152 270.116C422.478 270.986 420.684 272.222 418.506 274.4C417.186 275.714 416.214 276.902 415.458 278H411.648C412.614 276.248 413.988 274.34 416.22 272.108C418.488 269.84 420.426 268.46 422.202 267.482C420.258 268.376 418.2 269.648 415.62 272.228C413.394 274.454 412.14 276.29 411.27 278H407.772C408.774 275.678 410.214 273.158 413.382 269.99C416.058 267.314 418.272 265.874 420.294 264.884C418.05 265.814 415.752 267.038 412.728 270.062C409.542 273.248 408.354 275.624 407.406 278H404.088C405.216 275.06 406.392 272.024 410.544 267.872C413.802 264.614 416.376 263.198 418.752 262.178C416.052 263.222 413.466 264.266 409.842 267.89C406.134 271.598 405.126 274.214 404.058 276.986C403.967 277.229 403.873 277.471 403.778 277.716C403.741 277.811 403.705 277.905 403.668 278H400.398C400.673 277.38 400.912 276.765 401.149 276.151C401.181 276.069 401.212 275.988 401.244 275.906C402.372 272.96 403.548 269.918 407.706 265.754C411.87 261.602 414.912 260.426 417.858 259.298L417.887 259.287C420.642 258.217 423.253 257.203 426.954 253.508C430.662 249.8 431.67 247.184 432.732 244.412C433.746 241.778 434.796 239.06 438 235.52V240.41Z" fill="#6F7DFA"/>
<path fill-rule="evenodd" clip-rule="evenodd" d="M360 260V320H480V200H420C420 233.137 393.137 260 360 260Z" fill="#0D25F9"/>
<path fill-rule="evenodd" clip-rule="evenodd" d="M154 224C148.477 224 144 228.477 144 234C144 239.523 148.477 244 154 244V224Z" fill="#6F7DFA"/>
<path fill-rule="evenodd" clip-rule="evenodd" d="M154 224C159.523 224 164 228.477 164 234C164 239.523 159.523 244 154 244V224Z" fill="#FBFBFB"/>
<path fill-rule="evenodd" clip-rule="evenodd" d="M360 576C368.837 576 376 568.837 376 560H344C344 568.837 351.163 576 360 576Z" fill="#0D25F9"/>
<mask id="mask1" mask-type="alpha" maskUnits="userSpaceOnUse" x="234" y="434" width="126" height="126">
<path d="M360 434V560H234L360 434Z" fill="#FBB5B5"/>
</mask>
<g mask="url(#mask1)">
<path d="M360 434V560H234L360 434Z" fill="#FBB5B5"/>
<circle cx="360" cy="560" r="27" fill="#6F7DFA" stroke="#95F9F9" stroke-width="22"/>
</g>
</svg>
