<?xml version="1.0" encoding="UTF-8" standalone="no"?>
<svg width="31px" height="25px" viewBox="0 0 31 25" version="1.1" xmlns="http://www.w3.org/2000/svg" xmlns:xlink="http://www.w3.org/1999/xlink" xmlns:sketch="http://www.bohemiancoding.com/sketch/ns">
    <title>Shape copy</title>
    <description>Created with Sketch (http://www.bohemiancoding.com/sketch)</description>
    <defs></defs>
    <g id="Page 1" stroke="none" stroke-width="1" fill="none" fill-rule="evenodd">
        <path d="M27.34727,3.95314855 C28.660275,3.17208601 29.66886,1.93527548 30.143625,0.461439075 C28.91463,1.18482173 27.553575,1.7099394 26.10479,1.99295536 C24.94477,0.76629649 23.29185,0 21.46254,0 C17.95024,0 15.102425,2.82569908 15.102425,6.31110222 C15.102425,6.80576491 15.15869,7.28750731 15.267035,7.74940782 C9.981225,7.48623373 5.294955,4.97354416 2.158065,1.15513582 C1.610605,2.08724275 1.296885,3.17131695 1.296885,4.32799089 C1.296885,6.51767312 2.419705,8.4494109 4.126255,9.58116713 C3.083725,9.54840496 2.10304,9.26446611 1.24558,8.79179869 C1.24496,8.81810072 1.24496,8.84455656 1.24496,8.87116621 C1.24496,11.9289691 3.43728,14.4798043 6.346785,15.0596795 C5.81312,15.2039561 5.251245,15.2810164 4.671235,15.2810164 C4.261415,15.2810164 3.863065,15.2413326 3.474635,15.16781 C4.284045,17.6751161 6.63276,19.4999539 9.41594,19.5507122 C7.239275,21.2435783 4.497015,22.2524379 1.51714,22.2524379 C1.00378,22.2524379 0.49755,22.2225982 0,22.1641493 C2.814645,23.9549943 6.157685,25 9.749345,25 C21.44766,25 27.844975,15.3829944 27.844975,7.04279078 C27.844975,6.76915741 27.838775,6.49706217 27.82653,6.22619743 C29.069165,5.3365429 30.147345,4.22493617 31,2.9593626 C29.85951,3.46140831 28.633615,3.80056603 27.34727,3.95314855 Z M27.34727,3.95314855" id="Shape copy" fill="#FFFFFF"></path>
    </g>
</svg>