<?xml version="1.0" encoding="UTF-8" standalone="no"?>
<svg width="140px" height="84px" viewBox="0 0 140 84" version="1.1" xmlns="http://www.w3.org/2000/svg" xmlns:xlink="http://www.w3.org/1999/xlink" xmlns:sketch="http://www.bohemiancoding.com/sketch/ns">
    <title>Slice 1</title>
    <description>Created with Sketch (http://www.bohemiancoding.com/sketch)</description>
    <defs></defs>
    <g id="Page 1" stroke="none" stroke-width="1" fill="none" fill-rule="evenodd" sketch:type="MSPage">
        <path d="M24.0565189,33.9036048 C24.6054411,16.2558011 39.1084645,2.11764706 56.9191919,2.11764706 C61.608038,2.11764706 66.0676414,3.097501 70.1037547,4.86328708 C74.092816,1.81272598 79.0818338,0 84.4949495,0 C95.7259477,0 105.131335,7.80322738 107.567956,18.2751756 C114.296377,21.2710654 119.367913,27.3072391 121.030926,34.6350044 C131.931273,37.3661093 140,47.2126788 140,58.9411765 C140,72.7838255 128.762397,84 114.900111,84 L25.0998888,84 C11.2348611,84 0,72.7807826 0,58.9411765 C0,45.4475368 10.6780878,34.4496006 24.0565189,33.9036048 Z M24.0565189,33.9036048" id="Rectangle 10 copy" fill="#FFFFFF" sketch:type="MSShapeGroup"></path>
    </g>
</svg>