<?xml version="1.0" encoding="utf-8"?>
<!-- Generator: Adobe Illustrator 16.0.1, SVG Export Plug-In . SVG Version: 6.00 Build 0)  -->
<!DOCTYPE svg PUBLIC "-//W3C//DTD SVG 1.1//EN" "http://www.w3.org/Graphics/SVG/1.1/DTD/svg11.dtd">
<svg version="1.1" id="Layer_1" xmlns="http://www.w3.org/2000/svg" xmlns:xlink="http://www.w3.org/1999/xlink" x="0px" y="0px"
	 width="35px" height="35px" viewBox="0 0 35 35" enable-background="new 0 0 35 35" xml:space="preserve">
<g id="Page_1">
	<path id="Shape" fill="#FFFFFF" d="M0,17.5v-0.81c7.265-0.108,13.355-0.933,18.27-2.472c0.459,0.918,0.973,2.039,1.539,3.362
		c-0.594,0.162-1.04,0.297-1.336,0.405c-5.563,1.972-10.182,5.766-13.855,11.383C1.539,26.02,0,22.064,0,17.5L0,17.5z M0.365,14.016
		c0.54-2.728,1.681-5.185,3.423-7.373c1.74-2.188,3.868-3.862,6.38-5.023c2.646,3.241,4.941,6.643,6.887,10.208
		C12.519,13.179,6.954,13.908,0.365,14.016L0.365,14.016z M6.644,31.232c3.726-5.859,8.438-9.588,14.138-11.181
		c1.566,4.132,2.77,8.643,3.605,13.53C22.199,34.527,19.904,35,17.5,35C13.423,35,9.804,33.744,6.644,31.232L6.644,31.232z
		 M13.125,0.567C14.584,0.189,16.041,0,17.5,0c4.482,0,8.372,1.499,11.666,4.497c-2.348,2.728-5.428,4.848-9.235,6.36
		C17.933,7.157,15.664,3.727,13.125,0.567L13.125,0.567z M21.146,13.206c4.023-1.62,7.318-3.889,9.884-6.806
		c2.592,3.159,3.916,6.833,3.97,11.019c-4.402-0.999-8.479-1.175-12.234-0.526C22.55,16.325,22.01,15.096,21.146,13.206
		L21.146,13.206z M23.738,19.443c3.484-0.512,7.171-0.282,11.059,0.689c-0.352,2.458-1.201,4.727-2.553,6.807
		c-1.349,2.08-3.051,3.793-5.104,5.145C26.304,27.52,25.17,23.307,23.738,19.443L23.738,19.443z"/>
</g>
</svg>
