<?xml version="1.0" encoding="UTF-8" standalone="no"?>
<svg width="1000px" height="618px" viewBox="0 0 1000 618" version="1.1" xmlns="http://www.w3.org/2000/svg" xmlns:xlink="http://www.w3.org/1999/xlink" xmlns:sketch="http://www.bohemiancoding.com/sketch/ns">
    <title>Slice 1</title>
    <description>Created with Sketch (http://www.bohemiancoding.com/sketch)</description>
    <defs></defs>
    <g id="Page 1" stroke="none" stroke-width="1" fill="none" fill-rule="evenodd" sketch:type="MSPage">
        <path d="M958.331446,16.4155091 C880.877748,16.4155091 904.615256,41.3844563 802.178215,41.3844563 C703.441756,41.3844563 728.171552,31.9999941 648.171552,32.0000017 C568.171552,32.000009 552.344104,13.3705453 481.137575,13.3705453 C409.931712,13.3705453 366.195536,36.5125954 333.71519,36.5125954 C301.23551,36.5125954 251.26016,9.71654807 185.0503,11.8479619 C118.84044,13.9793757 130.091606,35.2947316 68.8790806,35.2947316 C42.9876749,35.2947316 19.1089274,33.93273 0.171552298,32.3610179 L0.171552298,617.968674 L999.507328,617.968674 L999.507328,19.6908906 C991.444704,17.744623 979.04497,16.4155091 958.331446,16.4155091 Z M958.331446,16.4155091" id="Shape" fill="#67877F" sketch:type="MSShapeGroup"></path>
    </g>
</svg>