<?xml version="1.0" encoding="UTF-8" standalone="no"?>
<svg width="26px" height="25px" viewBox="0 0 26 25" version="1.1" xmlns="http://www.w3.org/2000/svg" xmlns:xlink="http://www.w3.org/1999/xlink" xmlns:sketch="http://www.bohemiancoding.com/sketch/ns">
    <title>Group</title>
    <description>Created with Sketch (http://www.bohemiancoding.com/sketch)</description>
    <defs></defs>
    <g id="Page 1" stroke="none" stroke-width="1" fill="none" fill-rule="evenodd">
        <g id="Group" fill="#FFFFFF">
            <path d="M5.82628321,24.8647837 L5.82628321,8.11577758 L0.486580639,8.11577758 L0.486580639,24.8647837 L5.82628321,24.8647837 L5.82628321,24.8647837 Z M3.15713898,5.8276338 C5.01917642,5.8276338 6.17822136,4.5414928 6.17822136,2.93428189 C6.14351895,1.29080271 5.01924712,0.0403771034 3.19249189,0.0403771034 C1.36598412,0.0403771034 0.171586268,1.29082114 0.171586268,2.93428189 C0.171586268,4.54158495 1.33033071,5.8276338 3.12231637,5.8276338 L3.15702055,5.8276338 L3.15713898,5.8276338 Z M3.15713898,5.8276338" id="Shape"></path>
            <path d="M8.78178595,24.8647837 L14.1214885,24.8647837 L14.1214885,15.5113325 C14.1214885,15.0107458 14.1561909,14.510675 14.2971889,14.1528393 C14.6832073,13.1526794 15.5617976,12.1168041 17.0368622,12.1168041 C18.9690751,12.1168041 19.7420664,13.6527317 19.7420664,15.9043308 L19.7420664,24.8646915 L25.0814154,24.8646915 L25.0814154,15.2609746 C25.0814154,10.1163369 22.4470938,7.72259501 18.933899,7.72259501 C16.0533444,7.72259501 14.7885943,9.40127357 14.0859553,10.5446267 L14.1216087,10.5446267 L14.1216087,8.11550115 L8.78190615,8.11550115 C8.85197738,9.68712568 8.78190615,24.8645072 8.78190615,24.8645072 L8.78178595,24.8647837 Z M8.78178595,24.8647837" id="Shape"></path>
        </g>
    </g>
</svg>