<?xml version="1.0" encoding="UTF-8" standalone="no"?>
<svg width="47px" height="64px" viewBox="0 0 47 64" version="1.1" xmlns="http://www.w3.org/2000/svg" xmlns:xlink="http://www.w3.org/1999/xlink" xmlns:sketch="http://www.bohemiancoding.com/sketch/ns">
    <title>r-a</title>
    <description>Created with Sketch (http://www.bohemiancoding.com/sketch)</description>
    <defs></defs>
    <g id="Page 1" stroke="none" stroke-width="1" fill="none" fill-rule="evenodd">
        <path d="M35.46,59.24 L21.778,35.222 L16.098,36.188 L20.454,61.792 L10.62,63.465 L0.408,3.44 L17.534,0.526 C20.02,0.103 22.365,0.039 24.567,0.333 C26.768,0.627 28.738,1.354 30.477,2.511 C32.214,3.67 33.691,5.251 34.904,7.254 C36.117,9.259 36.979,11.758 37.488,14.753 C37.883,17.071 37.934,19.17 37.644,21.051 C37.353,22.932 36.861,24.572 36.169,25.969 C35.476,27.366 34.644,28.54 33.671,29.49 C32.698,30.441 31.698,31.149 30.673,31.614 L46.143,57.421 L35.46,59.24 L35.46,59.24 Z M27.57,16.964 C27.262,15.155 26.753,13.7 26.042,12.6 C25.332,11.499 24.508,10.68 23.574,10.141 C22.638,9.602 21.639,9.279 20.574,9.168 C19.509,9.059 18.467,9.09 17.449,9.264 L11.684,10.245 L14.829,28.727 L20.594,27.746 C23.081,27.323 24.998,26.198 26.344,24.369 C27.69,22.542 28.099,20.073 27.57,16.964 L27.57,16.964 Z M27.57,16.964" id="Shape" fill="#FFFFFF"></path>
    </g>
</svg>