<?xml version="1.0" encoding="UTF-8" standalone="no"?>
<svg width="134px" height="40px" viewBox="0 0 134 40" version="1.1" xmlns="http://www.w3.org/2000/svg" xmlns:xlink="http://www.w3.org/1999/xlink" xmlns:sketch="http://www.bohemiancoding.com/sketch/ns">
    <g id="Page 1" stroke="none" stroke-width="1" fill="none" fill-rule="evenodd" sketch:type="MSPage">
        <path d="M32.616,16.83 C32.3626654,17.1086681 32.0206688,17.2733331 31.59,17.324 C31.1593312,19.0466753 30.4120053,20.6679924 29.348,22.188 C28.1826608,23.8346749 26.9286734,24.8859977 25.586,25.342 C25.1553312,25.4940008 24.7246688,25.57 24.294,25.57 C22.9259932,25.57 21.7606715,24.936673 20.798,23.67 C20.13933,22.7833289 19.81,21.7193395 19.81,20.478 C19.81,18.8313251 20.3419947,17.045343 21.406,15.12 C22.1660038,13.7519932 23.0653281,12.6246711 24.104,11.738 C25.2440057,10.7753285 26.3586612,10.2560004 27.448,10.18 C28.4866719,10.1039996 29.3479966,10.534662 30.032,11.472 L31.324,12.992 C31.7546688,13.6253365 31.9193338,14.5119943 31.818,15.652 C31.818,15.8293342 31.7926669,16.1206646 31.742,16.526 C31.8180004,16.526 31.9383325,16.5133335 32.103,16.488 C32.2676675,16.4626665 32.4006662,16.45 32.502,16.45 C32.7806681,16.45 32.8186677,16.5766654 32.616,16.83 Z M16.314,18.388 C16.5926681,15.854654 17.2513281,13.7393418 18.29,12.042 C19.0753373,10.7246601 19.771997,10.0153338 20.38,9.914 C20.6333346,9.86333308 20.8106662,9.9646654 20.912,10.218 C21.0133338,10.4713346 21.0260004,10.8006646 20.95,11.206 C20.620665,12.8526749 19.518676,15.2593175 17.644,18.426 C14.7559856,23.2900243 12.1466783,25.6840004 9.816,25.608 C9.03066274,25.5826665 8.41633555,25.266003 7.973,24.658 C7.52966445,24.049997 7.33333308,23.3153376 7.384,22.454 C5.76265856,24.5313437 4.21734068,25.5193338 2.748,25.418 C1.2279924,25.3166662 0.468,24.3793422 0.468,22.606 C0.468,21.7953293 0.63266502,20.921338 0.962,19.984 C2.07667224,16.791984 3.8373213,13.5620163 6.244,10.294 C6.57333498,9.86333118 6.87733194,9.85066464 7.156,10.256 C7.5360019,10.7626692 7.726,11.34533 7.726,12.004 C7.726,12.941338 7.30800418,14.0686601 6.472,15.386 C5.05332624,17.6406779 4.01466996,19.565992 3.356,21.162 C3.00133156,22.0486711 2.824,22.7706639 2.824,23.328 C2.824,24.0120034 3.05199772,24.3413335 3.508,24.316 C4.16666996,24.2906665 4.92666236,23.7206722 5.788,22.606 C6.14266844,22.1246643 7.04199278,20.7313449 8.486,18.426 C9.65133916,16.2473224 11.2473232,13.5366829 13.274,10.294 C13.5020011,9.98999848 13.6919992,9.838 13.844,9.838 C13.9453338,9.838 14.0719992,9.91399924 14.224,10.066 C14.553335,10.4966688 14.718,11.1173293 14.718,11.928 C14.718,12.7133373 14.5280019,13.5113293 14.148,14.322 C13.2359954,15.8673411 12.0073411,18.071319 10.462,20.934 C9.98066426,21.9220049 9.74,22.7326635 9.74,23.366 C9.74,24.0500034 10.043997,24.4046665 10.652,24.43 C11.31067,24.4553335 12.1593281,23.904339 13.198,22.777 C14.2366719,21.649661 15.2753281,20.1866757 16.314,18.388 Z M29.348,15.804 C29.6520015,14.6133274 29.7533338,13.6760034 29.652,12.992 C29.5759996,12.4599973 29.3986681,12.194 29.12,12.194 C28.6893312,12.194 28.474,12.662662 28.474,13.6 C28.474,14.5120046 28.7653304,15.2466639 29.348,15.804 Z M29.082,16.83 C28.8793323,16.7539996 28.6386681,16.6020011 28.36,16.374 C27.2199943,15.4873289 26.6373335,14.3726734 26.612,13.03 C25.4213274,14.0433384 24.4460038,15.2339932 23.686,16.602 C22.5713278,18.6033433 22.014,20.4653247 22.014,22.188 C22.014,23.454673 22.4319958,24.088 23.268,24.088 C24.7626741,24.088 26.2573259,22.6820141 27.752,19.87 C28.3093361,18.8059947 28.752665,17.7926715 29.082,16.83 Z M42.42,11.244 C42.8760023,10.9399985 43.2179989,10.9146654 43.446,11.168 C44.1300034,11.9533373 44.472,12.7513293 44.472,13.562 C44.472,14.0686692 44.307335,14.5119981 43.978,14.892 C41.6726551,17.5013464 40.2793357,19.603992 39.798,21.2 C39.6206658,21.7826696 39.532,22.3273308 39.532,22.834 C39.532,24.0500061 39.9373293,24.6706665 40.748,24.696 C41.4573369,24.7213335 42.2426624,24.2400049 43.104,23.252 C43.5396949,22.7319771 43.9558931,22.1339861 44.352598,21.45802 C44.3995324,21.2766743 44.4519997,21.0893344 44.51,20.896 C45.0926696,19.0466574 46.5999878,15.7660236 49.032,11.054 C51.565346,6.08864184 53.6426586,2.51667756 55.264,0.338 C55.4413342,0.0846654 55.6186658,-0.042 55.796,-0.042 C56.3026692,-0.042 56.556,0.54066084 56.556,1.706 C56.556,2.74467186 56.0746715,4.09365837 55.112,5.753 C54.1493285,7.41234163 53.0093399,9.43265476 51.692,11.814 C53.3133414,10.2433255 54.7446605,9.458 55.986,9.458 C56.8726711,9.458 57.6073304,10.0786605 58.19,11.32 C58.4686681,11.928003 58.608,12.5233304 58.608,13.106 C58.608,14.0940049 58.2026707,14.9806627 57.392,15.766 C55.9226593,17.2100072 54.1620103,18.235997 52.11,18.844 C52.1860004,20.3893411 52.4646643,21.6623283 52.946,22.663 C53.4273357,23.6636717 54.0353297,24.2019996 54.77,24.278 C55.4793369,24.3540004 56.3279951,23.8093392 57.316,22.644 C57.7387384,22.1572103 58.138802,21.6186035 58.5161929,21.0281744 C58.5879553,20.7057182 58.681891,20.3703271 58.798,20.022 C59.2540023,18.7046601 60.0013281,17.0706764 61.04,15.12 C62.0280049,13.2959909 62.9019962,11.8520053 63.662,10.788 C63.8646677,10.5093319 64.0546658,10.37 64.232,10.37 C64.5106681,10.37 64.7386658,10.6486639 64.916,11.206 C65.0426673,11.6113354 65.106,11.9913316 65.106,12.346 C65.106,13.1060038 64.9160019,13.8913293 64.536,14.702 C63.7253293,16.1206738 62.6613399,18.1726532 61.344,20.858 C60.9386646,21.8460049 60.736,22.6566635 60.736,23.29 C60.736,24.1006707 61.06533,24.4933335 61.724,24.468 C62.5346707,24.4173331 63.4339951,23.8600053 64.422,22.796 C64.7773681,22.4000184 65.110353,21.9735193 65.4209572,21.5164991 C65.4297858,21.4871438 65.4388001,21.4576441 65.448,21.428 C65.8280019,20.2626608 66.6386605,18.5400114 67.88,16.26 C69.0706726,14.055989 70.2866605,12.0420091 71.528,10.218 C71.8066681,9.81266464 72.0726654,9.81266464 72.326,10.218 C72.6046681,10.6993357 72.744,11.26933 72.744,11.928 C72.744,12.5106696 72.6426677,13.1439966 72.44,13.828 C73.4026715,12.7893281 74.3906616,11.9153369 75.404,11.206 C76.5440057,10.3953293 77.4053304,10.0279996 77.988,10.104 C78.4693357,10.1800004 78.8936648,10.4649975 79.261,10.959 C79.6283352,11.4530025 79.812,12.02933 79.812,12.688 C79.812,13.1693357 79.6980011,13.6506643 79.47,14.132 C78.5833289,15.6266741 77.4053407,17.7799859 75.936,20.592 C75.5306646,21.5040046 75.328,22.3019966 75.328,22.986 C75.328,24.0500053 75.7333293,24.5566669 76.544,24.506 C77.8345195,24.4343045 79.3504657,22.874673 81.0918795,19.8270616 C81.3948147,18.6335636 81.9688531,17.4192147 82.814,16.184 C84.2073403,14.1319897 85.6639924,12.5613388 87.184,11.472 C88.5013399,10.534662 89.7046612,10.066 90.794,10.066 C91.5286703,10.066 92.0923314,10.3066643 92.485,10.788 C92.8776686,11.2693357 93.0613335,11.8646631 93.036,12.574 L94.29,10.484 C94.4673342,10.1799985 94.6573323,10.028 94.86,10.028 C95.1640015,10.028 95.4046658,10.3066639 95.582,10.864 C95.7086673,11.2946688 95.772,11.6999981 95.772,12.08 C95.772,12.8400038 95.5693354,13.6253293 95.164,14.436 C93.9986608,16.7160114 92.2886779,20.2373095 90.034,25 C92.7193468,23.6573266 94.9866574,21.7573456 96.836,19.3 C96.9626673,19.1479992 97.0893327,19.072 97.216,19.072 C97.3426673,19.0973335 97.4313331,19.1986658 97.482,19.376 C97.5833338,19.8826692 97.330003,20.6173285 96.722,21.58 C95.455327,23.5813433 92.9980182,25.2406601 89.35,26.558 C86.3353183,33.9047034 83.7133445,38.0213289 81.484,38.908 C81.2306654,39.0093338 80.9900011,39.06 80.762,39.06 C80.2046639,39.06 79.7106688,38.7433365 79.28,38.11 C78.5706631,37.0966616 78.216,36.121338 78.216,35.184 C78.216,34.6266639 78.3173323,34.0313365 78.52,33.398 C79.5080049,30.3073179 82.2186445,27.9133418 86.652,26.216 C86.9053346,25.6333304 87.2726643,24.7593392 87.754,23.594 C86.487327,24.860673 85.2080065,25.494 83.916,25.494 C82.9533285,25.494 82.1996694,25.1583367 81.655,24.487 C81.295993,24.044503 81.0553036,23.5057083 80.9329295,22.8706081 C80.4958845,23.4457772 79.9702427,23.9655726 79.356,24.43 C78.2413278,25.2660042 77.1520053,25.684 76.088,25.684 C73.8333221,25.684 72.706,24.6453437 72.706,22.568 C72.706,21.8079962 72.870665,20.959338 73.2,20.022 C73.6053354,18.7806605 74.4159939,17.1466768 75.632,15.12 C76.6706719,13.3719913 77.19,12.3840011 77.19,12.156 C77.19,12.0546662 77.1646669,11.9913335 77.114,11.966 C76.8606654,11.8646662 76.2780046,12.1053304 75.366,12.688 C74.2766612,13.3973369 73.1873388,14.3473274 72.098,15.538 C70.5779924,17.1846749 68.7286776,20.4019761 66.55,25.19 C66.3726658,25.5953354 66.1320015,25.6460015 65.828,25.342 C65.4797988,24.9937988 65.2575449,24.5528008 65.1612356,24.0189987 C64.9749101,24.1766714 64.7791648,24.3263386 64.574,24.468 C63.5099947,25.2026703 62.4333388,25.57 61.344,25.57 C59.6695176,25.57 58.6955481,24.8517742 58.4220737,23.4153047 C57.1749007,24.7684575 55.7675496,25.4360178 54.2,25.418 C52.7559928,25.3926665 51.6160042,24.8100057 50.78,23.67 C49.8173285,22.3779935 49.3486665,20.5160122 49.374,18.084 C49.374,17.7293316 49.4183329,17.5013338 49.507,17.4 C49.5956671,17.2986662 49.8173316,17.1846673 50.172,17.058 C52.1226764,16.4246635 53.7819932,15.4873395 55.15,14.246 C56.3153392,13.1819947 56.898,12.2826703 56.898,11.548 C56.898,11.1173312 56.6320027,10.902 56.1,10.902 C55.2386624,10.902 54.1176736,11.4276614 52.737,12.479 C51.3563264,13.5303386 50.1086722,15.018657 48.994,16.944 C48.0313285,18.6160084 46.7773411,21.3013148 45.232,25 C45.0799992,25.3800019 44.8520015,25.405335 44.548,25.076 C44.3462188,24.8431756 44.2062535,24.5485393 44.1281029,24.1920874 C43.9339146,24.3759533 43.7255469,24.5502575 43.503,24.715 C42.5276618,25.4370036 41.5333384,25.7726669 40.52,25.722 C39.5066616,25.6713331 38.7150029,25.3230032 38.145,24.677 C37.5749972,24.0309968 37.29,23.2013384 37.29,22.188 C37.29,20.0093224 38.9239837,17.0453521 42.192,13.296 C40.7226593,14.2586715 39.2406741,14.74 37.746,14.74 L34.554,20.212 C33.1099928,22.8213464 32.2360015,24.8353262 31.932,26.254 C31.8306662,26.7100023 31.615335,26.773335 31.286,26.444 C30.7286639,25.8613304 30.45,25.1393376 30.45,24.278 C30.45,23.4673293 30.6969975,22.5870048 31.191,21.637 C31.6850025,20.6869953 33.2999863,18.2613528 36.036,14.36 C35.5546643,14.0559985 35.314,13.5873365 35.314,12.954 C35.314,12.0673289 35.7193293,11.0793388 36.53,9.99 C37.3406707,8.9766616 38.0246639,8.45733346 38.582,8.432 C39.0886692,8.40666654 39.342,8.78666274 39.342,9.572 C39.342,10.4333376 39.0633361,11.5733262 38.506,12.992 C39.6460057,12.8399992 40.9506593,12.2573384 42.42,11.244 Z M67.538,7.558 C67.7153342,7.91266844 67.804,8.2799981 67.804,8.66 C67.804,9.82533916 67.3733376,10.408 66.512,10.408 C65.9546639,10.408 65.4986684,10.1166696 65.144,9.534 C64.8906654,9.10333118 64.764,8.66000228 64.764,8.204 C64.764,7.79866464 64.8779989,7.39966863 65.106,7.007 C65.3340011,6.61433137 65.6379981,6.418 66.018,6.418 C66.6513365,6.418 67.1579981,6.7979962 67.538,7.558 Z M89.73,18.616 C91.2246741,16.0319871 91.972,14.1320061 91.972,12.916 C91.972,12.3333304 91.7693354,12.0293335 91.364,12.004 C90.755997,11.9533331 89.8503393,12.4853278 88.647,13.6 C87.4436606,14.7146722 86.3353384,16.069992 85.322,17.666 C84.0806605,19.6420099 83.46,21.3773259 83.46,22.872 C83.46,23.809338 83.763997,24.2906665 84.372,24.316 C85.7400068,24.3413335 87.525989,22.4413525 89.73,18.616 Z M86.006,27.774 C84.080657,28.8886722 82.5353392,30.3959905 81.37,32.296 C80.4073285,33.8160076 79.926,35.1206612 79.926,36.21 C79.926,36.6406688 80.0146658,36.856 80.192,36.856 C80.6480023,36.856 81.4333278,36.0073418 82.548,34.31 C83.7893395,32.4606574 84.9419947,30.2820125 86.006,27.774 Z M116.862,12.65 C117.419336,11.6113281 117.875332,10.8386692 118.23,10.332 C118.432668,10.0533319 118.622666,9.914 118.8,9.914 C119.078668,9.914 119.306666,10.2053304 119.484,10.788 C119.610667,11.2186688 119.674,11.6113316 119.674,11.966 C119.674,12.7513373 119.484002,13.5366627 119.104,14.322 C118.191995,15.8420076 116.976008,18.033319 115.456,20.896 C114.999998,21.9346719 114.772,22.78333 114.772,23.442 C114.772,24.2273373 115.10133,24.6073335 115.76,24.582 C116.49467,24.5313331 117.355995,23.9613388 118.344,22.872 C118.779102,22.38571 119.198039,21.8412448 119.600816,21.2385998 C119.548272,20.9332281 119.522,20.6163619 119.522,20.288 C119.522,19.021327 119.88933,18.084003 120.624,17.476 C120.801334,17.3493327 120.940666,17.286 121.042,17.286 C121.244668,17.286 121.371333,17.4886646 121.422,17.894 C121.447333,18.1980015 121.472667,18.4893319 121.498,18.768 C123.448676,16.1079867 124.905329,13.9293418 125.868,12.232 C126.020001,10.965327 126.475996,9.99000342 127.236,9.306 C127.793336,8.7993308 128.312664,8.546 128.794,8.546 C129.250002,8.546 129.478,8.76133118 129.478,9.192 C129.478,9.39466768 129.174003,10.0406612 128.566,11.13 C128.515333,11.6366692 128.49,12.1686639 128.49,12.726 C128.49,13.6126711 128.578666,14.9299913 128.756,16.678 C128.882667,18.274008 128.933333,19.4519962 128.908,20.212 C128.806666,22.1626764 128.236672,23.4926631 127.198,24.202 C129.326011,23.4166627 131.023327,21.6560137 132.29,18.92 C132.391334,18.7173323 132.517999,18.6286665 132.67,18.654 C132.822001,18.654 132.936,18.7426658 133.012,18.92 C133.265335,19.4773361 133.088003,20.3133278 132.48,21.428 C131.010659,24.0880133 128.768682,25.4813327 125.754,25.608 C123.171974,25.7063629 121.329938,24.8141442 120.227838,22.9313179 C119.803802,23.4991991 119.289856,24.0114256 118.686,24.468 C117.596661,25.3293376 116.545338,25.7346669 115.532,25.684 C113.454656,25.5573327 112.416,24.5186764 112.416,22.568 C110.870659,24.5440099 109.287341,25.532 107.666,25.532 C106.677995,25.532 105.911669,25.1900034 105.367,24.506 C104.822331,23.8219966 104.55,22.9226722 104.55,21.808 C104.55,19.9586574 105.221327,18.0586764 106.564,16.108 C108.008007,14.0053228 109.489992,12.4093388 111.01,11.32 C112.302006,10.382662 113.479995,9.914 114.544,9.914 C115.329337,9.914 115.924665,10.1736641 116.33,10.693 C116.735335,11.2123359 116.912667,11.8646627 116.862,12.65 Z M113.556,18.54 C115.050674,15.9559871 115.798,14.0560061 115.798,12.84 C115.798,12.2573304 115.595335,11.9406669 115.19,11.89 C114.556663,11.8393331 113.657339,12.3586612 112.492,13.448 C111.25066,14.5880057 110.123338,15.9813251 109.11,17.628 C107.843327,19.6546768 107.21,21.4153259 107.21,22.91 C107.21,23.7966711 107.50133,24.2526665 108.084,24.278 C109.502674,24.3033335 111.326656,22.3906859 113.556,18.54 Z M125.792,14.664 C124.905329,16.2853414 123.588009,18.3373209 121.84,20.82 C122.42267,23.1253449 123.271328,24.278 124.386,24.278 C125.475339,24.278 126.02,22.7200156 126.02,19.604 C126.02,19.1226643 125.944001,17.4760141 125.792,14.664 Z M125.792,14.664" id="working as" fill="#FFFFFF" sketch:type="MSShapeGroup"></path>
    </g>
</svg>