<svg width="172" height="172" viewBox="0 0 172 172" fill="none" xmlns="http://www.w3.org/2000/svg">
<path opacity="0.6" d="M96.3379 172C94.0285 172 91.9484 170.673 90.9657 168.544C89.9174 166.267 90.3762 163.646 92.1614 161.877L167.535 86.498C167.944 86.0885 168.157 85.5151 168.125 84.9254C168.043 83.6806 167.093 83.222 166.798 83.1073C166.503 82.9927 165.488 82.6979 164.62 83.5824L78.0759 170.1C76.7001 171.492 74.7511 172.098 72.8348 171.754C70.6401 171.345 68.8875 169.789 68.2324 167.676C67.5772 165.563 68.1342 163.286 69.6901 161.714L164.718 66.6949C165.258 66.1543 165.455 65.3681 165.242 64.6474C164.931 63.6319 164.112 63.3207 163.768 63.2388C163.424 63.1569 162.556 63.0258 161.819 63.7793L60.256 165.35C58.5527 167.053 56.0141 167.561 53.7702 166.627C51.9522 165.858 50.6256 164.236 50.2489 162.303C49.8558 160.354 50.4619 158.356 51.8704 156.947L158.363 50.4462C159.002 49.8074 159.149 48.8082 158.723 48.022C158.396 47.4323 157.839 47.0556 157.217 46.9573C156.561 46.8754 155.906 47.0721 155.448 47.5471L45.4009 157.602C43.3864 159.617 40.2253 159.912 37.8668 158.306C36.4091 157.307 35.4755 155.735 35.3117 153.966C35.1315 152.197 35.754 150.461 37.0151 149.216L149.371 36.851C150.125 36.0975 150.174 34.9183 149.502 34.0829C149.109 33.6407 148.585 33.3786 147.995 33.3459C147.439 33.3131 146.865 33.5261 146.456 33.9519L32.9696 147.43C30.6602 149.74 26.9095 149.74 24.5838 147.43C23.4701 146.3 22.8641 144.81 22.8641 143.237C22.8641 141.648 23.4701 140.158 24.5838 139.044L138.07 25.549C138.496 25.1395 138.693 24.5827 138.66 24.0094C138.643 23.4198 138.381 22.8955 137.939 22.5188C137.104 21.8308 135.908 21.88 135.155 22.6335L22.7986 134.998C21.5539 136.259 19.8178 136.882 18.0489 136.718C16.28 136.538 14.6913 135.604 13.7086 134.13C12.1199 131.788 12.3983 128.626 14.4128 126.612L124.46 16.5567C124.935 16.098 125.148 15.4592 125.049 14.804C124.951 14.1488 124.574 13.6083 124.001 13.297C123.198 12.8548 122.2 13.0023 121.561 13.6411L15.0515 120.158C13.6593 121.551 11.6612 122.156 9.71219 121.78C7.77953 121.403 6.158 120.076 5.38821 118.258C4.45464 116.03 4.9625 113.475 6.66586 111.772L108.245 10.1849C108.982 9.44781 108.867 8.56341 108.786 8.23581C108.687 7.89184 108.392 7.05648 107.377 6.76164C106.623 6.53232 105.854 6.72881 105.313 7.26934L10.2854 102.304C8.72948 103.877 6.43643 104.434 4.32361 103.779C2.21079 103.123 0.654866 101.354 0.261783 99.1758C-0.0985429 97.2593 0.523839 95.2938 1.89963 93.9179L88.427 7.38404C89.2951 6.51591 89.0003 5.5004 88.902 5.20557C88.7874 4.91073 88.3288 3.94424 87.1004 3.87871C86.5272 3.82958 85.9375 4.05899 85.5117 4.46848L10.1216 79.8642C8.35277 81.6496 5.73219 82.1082 3.45558 81.0599C1.17898 80.028 -0.164057 77.7349 0.0161063 75.2288C0.130756 73.8201 0.736758 72.4769 1.73584 71.4778L61.7794 11.4299C62.8112 10.4143 62.3034 9.28411 62.1232 8.9729C61.9431 8.6453 61.2551 7.62967 59.8466 7.97364C59.4699 8.07192 59.126 8.25216 58.8803 8.53061L26.4019 40.9952C24.2727 43.1246 21.0788 43.3702 18.6548 41.552C16.2471 39.7503 15.5593 36.6381 17.0006 33.9846C17.2627 33.4768 17.6066 33.0183 18.0161 32.6088L32.3308 18.2928C33.0842 17.5394 34.3126 17.5394 35.066 18.2928C35.8194 19.0463 35.8194 20.2748 35.066 21.0283L20.7513 35.3442C20.6039 35.4916 20.4892 35.6553 20.391 35.8191C19.5884 37.3097 20.7349 38.2762 20.9805 38.4564C21.2098 38.6365 22.471 39.4555 23.6667 38.2598L56.1288 5.77885C56.8986 5.00901 57.8812 4.46848 58.9295 4.22279C61.5336 3.58397 64.1869 4.73046 65.4971 7.07276C66.8238 9.41506 66.4307 12.2651 64.5144 14.1651L4.48739 74.2132C4.14345 74.5736 3.93065 75.0322 3.88152 75.5236C3.78325 76.8503 4.76592 77.4072 5.07711 77.5382C5.37193 77.6857 6.45284 78.0624 7.38641 77.1288L82.7764 1.73304C83.972 0.53733 85.6264 -0.101476 87.3298 0.0131719C89.6883 0.144201 91.6864 1.61835 92.5053 3.82961C93.357 6.04087 92.8492 8.44875 91.1622 10.1195L4.63486 96.6534C4.15989 97.1284 3.94697 97.8164 4.06162 98.4879C4.20902 99.2578 4.74954 99.8473 5.48658 100.077C6.22361 100.306 6.99333 100.126 7.5502 99.5689L102.578 4.5339C104.118 2.99421 106.378 2.42099 108.474 3.04341C110.505 3.64947 112.012 5.2382 112.536 7.28566C113.044 9.33312 112.471 11.4298 110.964 12.9203L9.40093 114.507C8.81131 115.097 8.63127 115.981 8.95884 116.751C9.23727 117.407 9.77764 117.849 10.4655 117.98C11.1534 118.111 11.825 117.914 12.3327 117.423L118.826 10.9057C120.66 9.07114 123.559 8.64524 125.835 9.89009C127.49 10.791 128.603 12.3797 128.882 14.247C129.144 16.1143 128.554 17.949 127.195 19.2921L17.1481 129.347C16.4602 130.052 16.3455 131.149 16.9024 131.968C17.2463 132.476 17.8031 132.803 18.4091 132.853C19.0151 132.918 19.6212 132.705 20.0634 132.263L132.42 19.898C134.598 17.7195 138.021 17.5722 140.396 19.5378C141.673 20.6025 142.46 22.1585 142.541 23.8128C142.623 25.4836 141.985 27.1051 140.805 28.2845L27.3353 141.779C26.9423 142.173 26.713 142.68 26.713 143.237C26.713 143.778 26.9423 144.302 27.3353 144.695C28.1215 145.498 29.4318 145.498 30.2344 144.695L143.721 31.2C144.9 30.0207 146.538 29.3983 148.192 29.4802C149.846 29.5621 151.419 30.332 152.467 31.626C154.432 34.001 154.269 37.4244 152.107 39.6029L39.7503 151.951C39.3081 152.377 39.0951 152.983 39.1606 153.606C39.2261 154.212 39.5373 154.768 40.0614 155.112C40.864 155.653 41.9614 155.555 42.6657 154.867L152.712 44.7952C154.039 43.4684 155.906 42.8625 157.757 43.1246C159.624 43.403 161.213 44.5168 162.114 46.1711C163.359 48.4643 162.933 51.3472 161.098 53.1981L54.6055 159.699C54.0977 160.19 53.9012 160.862 54.0322 161.55C54.1796 162.238 54.6219 162.778 55.2771 163.057C56.0305 163.368 56.9313 163.204 57.521 162.598L159.067 61.0439C160.558 59.5533 162.671 58.9636 164.718 59.4878C166.765 59.9956 168.338 61.5025 168.944 63.5336C169.582 65.6138 169.009 67.8742 167.47 69.4303L72.4254 164.465C71.8849 165.006 71.6883 165.792 71.934 166.529C72.1469 167.266 72.7528 167.807 73.5226 167.938C74.1941 168.069 74.8657 167.856 75.3407 167.365L161.868 80.8305C163.539 79.1598 165.946 78.6521 168.174 79.4875C170.385 80.3229 171.843 82.3211 171.99 84.6797C172.088 86.3832 171.466 88.0376 170.254 89.2497L94.8965 164.613C93.9629 165.546 94.3396 166.627 94.487 166.922C94.618 167.234 95.175 168.2 96.5017 168.118C96.9931 168.085 97.468 167.872 97.812 167.528L157.823 107.513C159.706 105.613 162.572 105.22 164.914 106.53C167.257 107.857 168.403 110.494 167.764 113.099C167.519 114.163 166.978 115.13 166.208 115.9L133.828 148.266C132.632 149.478 133.468 150.723 133.632 150.952C133.812 151.198 134.778 152.344 136.269 151.542C136.432 151.443 136.612 151.329 136.743 151.181L150.894 137.029C151.648 136.276 152.876 136.276 153.63 137.029C154.383 137.783 154.383 139.011 153.63 139.765L139.479 153.917C139.069 154.326 138.611 154.67 138.103 154.949C135.466 156.374 132.338 155.686 130.536 153.278C128.718 150.854 128.964 147.676 131.093 145.53L163.473 113.164C163.735 112.902 163.915 112.558 164.014 112.181C164.358 110.789 163.342 110.085 163.015 109.904C162.703 109.724 161.573 109.233 160.558 110.249L100.547 170.264C99.548 171.263 98.2214 171.869 96.7965 171.984C96.6491 171.984 96.5017 172 96.3379 172Z" fill="#95F9F9"/>
</svg>
